<?xml version="1.0" standalone="no"?>
<!DOCTYPE svg PUBLIC "-//W3C//DTD SVG 20010904//EN"
 "http://www.w3.org/TR/2001/REC-SVG-20010904/DTD/svg10.dtd">
<svg version="1.0" xmlns="http://www.w3.org/2000/svg"
 width="495.000000pt" height="495.000000pt" viewBox="0 0 495.000000 495.000000"
 preserveAspectRatio="xMidYMid meet">
<metadata>
Created by potrace 1.14, written by Peter Selinger 2001-2017
</metadata>
<g transform="translate(0.000000,495.000000) scale(0.100000,-0.100000)"
fill="#000000" stroke="none">
<path d="M2554 4881 c3 -5 1 -11 -5 -13 -15 -5 -19 -108 -4 -108 5 0 4 -4 -3
-9 -8 -4 -14 -12 -14 -16 0 -4 6 -12 14 -16 7 -5 8 -9 2 -9 -6 0 -9 -14 -7
-32 2 -18 4 -40 5 -48 2 -29 71 -60 84 -38 3 4 10 5 16 2 13 -8 123 -8 137 0
6 4 11 2 11 -4 0 -18 38 8 45 31 10 29 12 180 3 185 -4 3 -3 15 1 27 18 47 -2
55 -153 56 -86 1 -136 -2 -132 -8z"/>
<path d="M2207 4824 c-1 -1 -36 -5 -79 -8 -90 -8 -130 -13 -166 -21 -15 -3
-40 -7 -57 -10 -72 -11 -101 -17 -111 -26 -6 -5 -13 -6 -16 -4 -3 3 -17 1 -32
-5 -15 -5 -41 -12 -59 -15 -17 -4 -37 -11 -44 -17 -7 -6 -13 -8 -13 -4 0 3
-24 -4 -52 -15 -29 -12 -57 -22 -63 -24 -5 -1 -23 -7 -38 -13 -16 -7 -33 -12
-38 -12 -5 0 -9 -4 -9 -10 0 -5 -7 -10 -15 -10 -9 0 -44 -14 -78 -32 -34 -18
-65 -31 -69 -30 -5 1 -8 -3 -8 -8 0 -6 -9 -10 -20 -10 -11 0 -20 -4 -20 -9 0
-5 -8 -11 -17 -14 -19 -6 -75 -38 -83 -48 -3 -3 -24 -16 -47 -29 -24 -13 -43
-27 -43 -32 0 -4 -6 -8 -13 -8 -7 0 -25 -11 -40 -25 -15 -14 -27 -22 -27 -18
0 4 -4 3 -8 -3 -4 -6 -45 -43 -92 -81 -83 -68 -229 -212 -286 -283 -16 -19
-31 -37 -34 -40 -3 -3 -18 -23 -35 -45 -16 -22 -32 -42 -36 -45 -3 -3 -9 -15
-13 -28 -4 -12 -12 -20 -17 -17 -5 4 -9 0 -9 -8 0 -7 -9 -23 -20 -35 -11 -12
-20 -24 -20 -27 0 -3 -11 -23 -25 -45 -31 -50 -31 -52 2 -39 17 6 162 10 385
11 425 0 430 -1 519 -93 l57 -58 30 32 c35 37 83 76 158 128 228 160 509 254
789 263 l40 2 3 436 2 436 -65 -1 c-36 0 -67 -2 -68 -3z"/>
<path d="M3060 4587 c0 -5 -4 -6 -10 -2 -5 3 -18 -3 -30 -15 -11 -11 -24 -20
-28 -20 -5 0 -9 -6 -9 -12 -1 -7 -5 -26 -10 -43 -5 -16 -8 -54 -7 -82 1 -34
-2 -50 -9 -46 -6 4 -7 1 -1 -8 5 -8 10 -115 10 -239 1 -158 5 -225 13 -228 6
-2 11 -10 11 -18 0 -8 6 -14 14 -14 8 0 16 -5 18 -11 2 -5 10 -11 18 -12 8 -2
20 -5 25 -8 6 -3 98 -5 207 -5 130 1 194 -2 190 -9 -3 -5 1 -5 9 1 8 6 23 10
34 8 11 -1 23 2 27 9 5 8 8 8 8 1 0 -10 52 -11 115 -2 21 3 55 32 55 48 0 6 4
10 10 10 5 0 7 7 4 15 -4 8 -2 15 3 15 5 0 8 59 8 131 0 72 3 133 8 136 4 2 4
10 0 16 -12 19 -11 121 1 129 7 5 7 8 1 8 -6 0 -10 35 -10 86 0 47 -3 88 -8
91 -4 2 -5 9 -1 14 3 5 1 8 -4 7 -5 -2 -18 7 -28 20 -11 13 -29 24 -41 25 -13
1 -23 4 -23 8 0 4 -13 4 -30 -1 -16 -5 -30 -5 -30 -1 0 8 -165 5 -180 -4 -5
-3 -10 -3 -10 2 0 4 -72 8 -160 8 -88 0 -160 -4 -160 -8z"/>
<path d="M4036 4103 c-4 -4 -19 -8 -34 -8 -16 0 -26 -6 -24 -13 1 -7 -3 -12
-9 -12 -6 0 -10 -43 -9 -122 2 -109 4 -126 22 -145 12 -12 26 -19 32 -16 6 4
60 7 119 8 91 0 111 3 121 18 9 11 13 56 14 133 0 151 -4 156 -121 153 -45 -2
-87 0 -93 4 -6 3 -14 3 -18 0z"/>
<path d="M2670 4071 c0 -5 -13 -8 -30 -6 -16 2 -30 -1 -30 -6 0 -6 -4 -8 -9
-5 -5 3 -9 -34 -9 -84 -1 -83 1 -90 21 -96 25 -8 137 -8 145 1 3 2 11 0 17 -5
10 -8 13 12 14 90 1 55 -2 101 -6 101 -4 1 -26 3 -49 4 -22 1 -46 5 -52 9 -7
4 -12 3 -12 -3z"/>
<path d="M3634 3689 c-11 -18 -6 -122 6 -129 7 -4 37 -8 67 -7 62 0 74 12 65
66 -4 27 -2 32 9 26 12 -8 12 -6 0 8 -7 9 -10 17 -6 17 4 0 2 7 -5 14 -12 16
-127 20 -136 5z"/>
<path d="M4420 3633 c0 -4 -101 -8 -225 -7 -123 0 -222 -3 -219 -8 3 -4 -2
-11 -11 -14 -9 -4 -24 -23 -34 -43 -15 -32 -17 -65 -16 -288 2 -172 6 -257 13
-266 7 -8 8 -18 4 -22 -4 -5 -1 -5 6 -1 7 4 12 1 12 -9 0 -9 5 -13 10 -10 6 3
10 1 10 -5 0 -6 5 -8 10 -5 6 3 10 1 10 -5 0 -11 518 -11 550 0 21 7 39 24 33
33 -2 4 0 7 5 7 20 0 29 58 27 175 0 66 3 125 7 132 5 6 5 14 0 17 -10 6 -8
68 3 86 5 9 4 11 -3 6 -16 -10 -15 16 1 33 6 8 7 11 1 8 -8 -5 -11 9 -9 43 1
28 -2 53 -7 57 -6 3 -5 9 3 14 11 7 10 9 -3 9 -10 0 -18 6 -18 14 0 12 -18 25
-45 31 -5 2 -17 4 -25 6 -8 2 -18 9 -22 14 -5 6 -8 6 -8 -2 0 -12 -30 -10 -50
2 -6 3 -10 3 -10 -2z"/>
<path d="M345 3600 c-4 -6 -10 -8 -15 -5 -5 3 -12 0 -15 -6 -4 -5 -14 -8 -22
-4 -14 5 -14 3 -2 -12 9 -11 10 -14 2 -9 -8 4 -13 2 -13 -4 0 -6 -4 -8 -10 -5
-5 3 -10 2 -10 -4 0 -6 -10 -20 -22 -32 -13 -12 -17 -19 -10 -15 6 4 12 2 12
-3 0 -6 -4 -11 -10 -11 -5 0 -8 -16 -6 -35 1 -19 -2 -35 -6 -35 -5 0 -5 -7 0
-17 6 -9 6 -29 2 -45 -5 -15 -5 -30 0 -33 7 -4 7 -21 0 -45 -4 -14 1 -254 5
-258 3 -3 0 -11 -6 -19 -6 -7 -7 -13 -2 -13 5 0 9 -9 9 -19 0 -11 -4 -17 -9
-14 -5 3 -6 -5 -2 -17 10 -30 10 -103 1 -118 -4 -7 -3 -12 1 -12 5 0 8 -20 7
-45 -1 -25 3 -45 7 -45 5 0 8 -6 6 -12 -1 -7 4 -12 10 -11 7 2 13 -4 13 -13 0
-8 4 -13 9 -9 6 3 8 -4 6 -15 -2 -12 1 -20 8 -18 7 1 22 -3 35 -10 17 -10 22
-10 22 0 0 6 7 3 15 -8 8 -10 15 -14 15 -7 0 8 9 9 30 3 20 -6 30 -5 30 2 0 6
6 6 15 -2 8 -7 15 -8 15 -4 0 13 63 11 72 -1 5 -6 8 -4 8 5 0 13 1 13 10 0 6
-9 10 -11 10 -3 0 8 7 10 17 6 23 -9 66 -8 81 1 7 4 12 2 12 -6 0 -10 2 -10 9
1 7 11 11 10 20 -5 9 -17 10 -17 11 -2 0 14 5 16 22 9 13 -4 36 -5 51 0 25 7
28 6 23 -9 -6 -16 -5 -16 7 0 9 12 18 14 30 7 12 -7 17 -6 17 3 0 8 3 9 8 3 4
-5 14 -10 22 -10 8 0 18 5 22 10 5 6 8 5 8 -4 0 -9 4 -10 13 -4 6 6 21 9 32 6
39 -7 85 -8 85 -1 0 4 7 5 15 2 8 -4 15 -1 15 5 0 6 17 -5 37 -24 20 -19 41
-35 46 -35 4 0 5 -5 1 -12 -5 -8 -2 -9 10 -5 9 4 14 3 11 -2 -3 -5 -1 -12 5
-16 6 -4 8 -11 5 -16 -3 -5 1 -6 9 -3 15 6 21 -6 17 -29 -1 -5 2 -6 7 -3 12 7
54 -38 45 -48 -5 -4 -3 -6 3 -4 17 5 76 -51 68 -64 -4 -6 -3 -8 4 -4 17 10 45
-23 32 -39 -8 -9 -8 -15 0 -20 6 -3 8 -11 4 -16 -3 -5 -10 -6 -16 -3 -7 4 -7
0 0 -12 5 -11 9 -98 8 -194 -1 -96 2 -183 7 -194 6 -11 5 -16 0 -13 -5 4 -10
-7 -10 -23 0 -17 5 -30 11 -30 7 0 7 -3 1 -8 -13 -9 -14 -85 0 -94 6 -5 6 -8
0 -8 -5 0 -11 -11 -11 -25 -1 -15 2 -22 9 -18 6 4 7 1 2 -7 -13 -21 -14 -60
-2 -60 8 0 7 -4 -1 -12 -15 -15 -16 -31 0 -22 8 5 9 2 5 -9 -4 -10 0 -20 11
-26 9 -6 12 -11 5 -11 -7 0 1 -14 19 -30 32 -31 69 -47 87 -36 5 4 12 2 16 -4
3 -5 13 -10 21 -10 9 0 12 5 8 11 -4 8 -1 8 12 2 23 -11 664 -11 682 0 6 5 12
5 12 2 0 -4 7 1 16 10 9 9 23 14 31 11 8 -3 11 -1 8 4 -3 5 2 18 12 28 24 25
27 36 28 110 1 34 4 64 7 67 3 3 2 24 -2 48 -3 23 -4 52 0 65 3 12 3 84 0 158
-3 75 -2 141 1 146 4 6 3 24 -1 42 -3 17 -3 43 1 58 4 16 4 30 1 32 -4 2 -6
19 -6 38 1 18 -3 39 -9 46 -6 8 -6 12 3 12 8 0 11 3 7 6 -3 3 38 49 91 102 53
53 96 100 95 104 -2 4 8 10 22 14 14 3 23 10 20 14 -3 4 2 11 11 14 9 4 14 9
10 13 -3 3 4 11 16 17 15 7 92 9 236 6 118 -3 215 -3 217 0 2 3 27 3 57 0 29
-3 99 -3 155 0 57 3 113 2 125 -2 13 -3 20 -6 17 -7 -4 -1 9 -18 30 -39 20
-21 39 -36 43 -35 4 2 9 -6 13 -17 3 -11 11 -20 16 -20 15 0 39 -26 32 -34 -4
-3 -2 -6 4 -6 13 0 103 -87 103 -100 0 -5 6 -10 14 -10 8 0 18 -5 22 -12 4 -6
3 -8 -3 -5 -6 4 -11 -3 -11 -16 -7 -244 -2 -748 6 -764 6 -11 9 -23 5 -26 -3
-4 2 -9 11 -13 9 -3 16 -12 16 -19 0 -7 14 -18 30 -25 17 -7 30 -17 30 -22 0
-5 9 -4 20 2 11 6 20 7 20 3 0 -4 164 -8 365 -8 201 0 365 4 365 8 0 5 5 5 10
2 6 -3 10 -1 10 4 0 6 3 10 8 10 17 -3 35 2 29 7 -4 4 1 14 11 23 25 22 35 48
37 99 1 23 4 44 6 47 2 2 2 44 -1 95 -3 50 -2 99 1 108 3 9 3 29 -2 45 -4 15
-5 27 -1 27 9 0 7 84 -2 98 -3 6 -2 13 4 17 6 4 8 11 4 16 -3 6 -6 68 -6 140
0 77 -4 129 -9 129 -6 0 -7 5 -4 10 3 6 1 10 -6 10 -7 0 -10 3 -6 6 7 8 -38
54 -53 54 -6 0 -9 4 -6 9 4 5 -3 7 -14 4 -11 -3 -20 -1 -20 3 0 5 -25 9 -55 9
-30 0 -55 -4 -55 -10 0 -7 -3 -7 -8 0 -8 12 -182 14 -182 2 0 -5 -5 -5 -12 -1
-6 4 -107 7 -225 7 l-214 0 -150 149 c-83 81 -146 148 -142 148 5 0 8 15 8 33
-1 17 4 35 9 39 7 5 7 8 1 8 -6 0 -10 117 -10 331 0 342 -3 377 -41 415 -50
50 -64 53 -223 53 -83 0 -154 1 -158 2 -5 1 -12 0 -18 -1 -13 -2 -87 -2 -100
0 -5 1 -13 2 -17 2 -3 -1 -76 -2 -162 -3 -94 0 -156 -5 -156 -10 0 -6 -5 -7
-11 -4 -16 11 -92 -74 -86 -96 3 -12 1 -17 -6 -12 -6 4 -8 -1 -5 -14 3 -12 2
-27 -3 -34 -4 -7 -5 -18 -1 -23 8 -14 9 -87 0 -92 -4 -3 -5 -11 -1 -20 9 -23
9 -184 0 -184 -5 0 -5 -5 -2 -11 6 -9 9 -118 4 -144 -1 -5 0 -14 1 -20 5 -23
2 -144 -4 -154 -4 -5 -2 -12 3 -15 18 -11 8 -57 -17 -76 -13 -11 -22 -20 -18
-20 4 0 1 -6 -6 -14 -7 -8 -16 -12 -20 -9 -5 2 -8 0 -8 -6 0 -14 -47 -60 -54
-53 -3 3 -6 -3 -6 -13 0 -10 -3 -15 -7 -12 -3 4 -16 -7 -28 -23 -12 -16 -24
-27 -28 -24 -3 3 -8 -4 -12 -15 -3 -12 -9 -21 -13 -21 -4 0 -22 -14 -40 -31
-19 -17 -39 -28 -47 -25 -8 3 -15 1 -15 -5 0 -6 -5 -7 -10 -4 -16 10 -110 12
-110 2 0 -4 -5 -5 -11 -2 -17 11 -159 11 -159 0 0 -7 -3 -7 -8 0 -4 6 -45 10
-92 10 -47 0 -88 -4 -92 -10 -5 -7 -8 -7 -8 0 0 9 -190 13 -215 4 -5 -2 -29
16 -53 39 -24 23 -49 42 -54 42 -6 0 -8 3 -5 7 4 3 -6 17 -21 31 -15 14 -26
30 -25 34 2 4 -6 8 -18 8 -11 0 -18 4 -15 8 3 5 -13 24 -34 42 -21 18 -36 38
-33 44 3 6 3 8 -2 4 -4 -4 -19 5 -31 20 -13 15 -19 28 -14 30 6 2 6 10 0 21
-5 10 -7 21 -3 24 9 9 9 188 0 194 -4 2 -4 9 -1 15 10 15 11 99 2 104 -5 3 -5
11 -1 17 11 18 10 121 -2 129 -7 5 -7 8 0 8 12 0 13 39 2 57 -4 5 -3 13 1 17
11 12 9 60 -2 68 -7 5 -7 8 -1 8 12 0 13 59 2 77 -4 6 -1 14 5 16 10 4 10 6 1
6 -7 1 -13 10 -13 22 0 11 -4 17 -10 14 -5 -3 -10 1 -10 10 0 10 -5 13 -12 9
-7 -5 -9 -2 -5 9 4 12 2 14 -10 10 -11 -4 -14 -2 -9 5 7 12 -5 16 -33 13 -7
-2 -11 2 -8 6 3 5 -3 10 -14 10 -13 1 -17 -2 -12 -10 4 -8 1 -7 -9 1 -9 8 -25
12 -35 10 -10 -1 -24 1 -30 5 -8 5 -13 4 -13 -2 0 -13 -22 -10 -32 4 -4 6 -8
1 -8 -10 0 -15 -2 -17 -9 -7 -10 16 -81 22 -81 7 0 -5 -5 -3 -10 5 -5 8 -10
10 -10 5 0 -11 -62 -11 -79 0 -6 3 -11 0 -11 -7 0 -9 -3 -9 -10 2 -6 10 -10
11 -10 3 0 -9 -7 -10 -25 -3 -14 5 -25 6 -25 2 0 -9 -63 -7 -78 2 -7 4 -12 1
-12 -6 0 -9 -3 -9 -10 2 -6 9 -10 10 -10 3 0 -8 -9 -9 -30 -3 -16 5 -30 5 -30
1 0 -11 -54 -7 -62 4 -5 6 -8 6 -8 -1 0 -6 -13 -9 -30 -6 -19 3 -30 0 -30 -7
0 -7 -5 -9 -10 -6 -6 4 -8 11 -5 16 4 5 4 9 1 9 -3 0 -8 -5 -11 -10z"/>
<path d="M133 3248 c-6 -14 -15 -42 -18 -62 -4 -20 -11 -36 -17 -36 -5 0 -6
-4 -3 -10 3 -5 -1 -33 -9 -62 -9 -29 -17 -64 -20 -78 -3 -14 -7 -36 -11 -50
-14 -64 -16 -77 -19 -105 -2 -16 -6 -50 -10 -75 -13 -93 -14 -150 -3 -150 8 0
8 -3 -1 -8 -9 -7 -11 -53 -8 -203 3 -107 7 -203 10 -214 3 -11 7 -38 10 -60 8
-69 16 -119 22 -137 3 -10 7 -30 10 -45 3 -16 8 -37 11 -48 4 -11 7 -22 8 -25
1 -11 27 -106 33 -120 3 -8 6 -17 6 -20 1 -3 5 -11 9 -17 5 -7 6 -13 3 -13 -6
0 86 -224 120 -293 15 -29 32 -55 38 -59 6 -4 8 -8 3 -8 -8 0 103 -183 115
-188 4 -2 8 -10 8 -18 0 -8 5 -14 10 -14 6 0 10 -7 10 -15 0 -8 4 -15 8 -15 4
0 15 -12 24 -27 10 -16 27 -40 40 -55 13 -15 34 -42 48 -60 36 -47 248 -258
295 -293 22 -17 49 -38 60 -48 100 -93 540 -335 637 -351 7 -1 23 -8 36 -14
12 -7 22 -10 22 -7 0 2 17 -2 38 -10 41 -16 131 -41 177 -50 206 -40 241 -45
388 -51 l127 -5 0 435 0 436 -42 1 c-24 1 -47 1 -51 0 -8 -1 -178 24 -229 34
-15 3 -39 10 -54 15 -15 6 -29 8 -32 6 -2 -3 -14 0 -26 6 -11 7 -23 13 -26 13
-10 1 -76 28 -138 56 -35 16 -65 29 -68 29 -2 0 -23 12 -47 27 -23 15 -44 28
-47 28 -9 1 -104 67 -155 109 -68 55 -215 203 -215 216 0 5 -3 10 -8 10 -4 0
-32 37 -62 83 -30 45 -57 84 -60 87 -3 3 -27 49 -53 102 -93 190 -144 394
-151 603 l-2 50 -264 5 c-251 5 -267 6 -307 28 -54 28 -102 77 -128 128 -18
36 -20 65 -25 339 -4 242 -7 294 -17 273z"/>
<path d="M4558 2808 c-9 -12 -14 -37 -13 -73 2 -35 -1 -52 -8 -48 -6 4 -7 1
-1 -8 12 -19 14 -80 3 -73 -5 3 -1 -10 9 -28 l19 -33 109 -3 c157 -4 154 -6
154 137 0 64 -4 123 -10 131 -7 11 -35 15 -128 15 -104 1 -121 -1 -134 -17z"/>
<path d="M3769 2811 c-8 -33 -4 -161 5 -163 42 -6 143 -4 152 3 14 12 15 147
0 157 -14 9 -155 12 -157 3z"/>
<path d="M2880 2388 c0 -5 -4 -7 -10 -3 -27 17 -62 -169 -36 -195 6 -6 6 -10
1 -10 -8 0 -12 -270 -4 -290 1 -3 1 -9 0 -13 -1 -5 3 -6 9 -2 9 6 15 -8 11
-29 -1 -5 5 -6 13 -3 9 4 18 2 21 -3 8 -12 465 -11 465 1 0 6 4 8 9 5 18 -12
40 58 37 121 -1 37 2 64 8 67 7 3 7 5 1 5 -6 1 -10 55 -9 143 2 224 11 217
-288 217 -140 -1 -228 -5 -228 -11z"/>
<path d="M2716 1612 c-2 -4 -25 -7 -50 -7 -25 1 -46 -2 -46 -7 0 -5 -4 -7 -8
-4 -11 7 -12 2 -15 -122 -1 -57 1 -106 6 -109 4 -2 5 -8 2 -13 -11 -18 33 -29
104 -27 42 1 71 -2 71 -8 0 -6 3 -6 8 0 4 6 22 10 40 10 45 -2 55 24 56 135 1
47 5 91 10 99 6 10 6 12 -2 7 -7 -4 -12 -1 -12 9 0 9 -4 13 -10 10 -5 -3 -10
0 -10 8 0 12 -12 15 -52 13 -29 -2 -61 1 -70 6 -9 4 -19 4 -22 0z"/>
<path d="M3211 1508 c-1 -64 10 -101 23 -79 4 6 13 8 19 4 18 -11 47 -11 47 1
0 6 4 6 11 -1 9 -9 15 -8 24 1 15 14 18 32 16 94 l-1 42 -69 0 -68 0 -2 -62z"/>
<path d="M3920 1256 c0 -4 -6 -6 -13 -3 -8 3 -14 0 -15 -6 -1 -12 -9 -48 -12
-57 -5 -13 -5 -38 1 -67 4 -18 4 -33 0 -33 -3 0 -6 -16 -6 -35 0 -19 3 -35 7
-35 4 0 5 -6 3 -12 -10 -26 -12 -79 -4 -84 5 -3 7 -10 4 -15 -4 -5 -1 -9 5 -9
6 0 8 -5 4 -12 -5 -8 -2 -9 9 -5 10 3 17 3 17 -2 0 -4 72 -7 160 -7 88 0 160
4 160 9 0 4 6 5 13 1 6 -4 9 -4 5 1 -4 4 -3 14 2 20 6 7 10 66 10 131 0 65 0
135 0 155 1 64 -16 70 -194 72 -86 1 -156 -2 -156 -7z"/>
<path d="M3028 1114 c-3 -3 -18 -7 -34 -10 -42 -7 -73 -25 -80 -46 -3 -10 -10
-15 -16 -12 -6 4 -8 2 -4 -4 3 -6 1 -14 -5 -18 -8 -4 -7 -9 2 -15 8 -5 9 -9 3
-9 -7 0 -10 -18 -9 -47 1 -27 -3 -54 -9 -62 -7 -10 -8 -13 0 -8 13 7 13 -101
0 -122 -6 -9 -5 -12 1 -8 5 3 9 -13 9 -39 0 -24 -4 -44 -10 -44 -7 0 -8 -3 -1
-8 6 -4 10 -59 11 -124 0 -99 3 -121 19 -138 10 -11 14 -20 9 -20 -5 -1 8 -10
30 -20 21 -11 43 -17 47 -14 5 3 9 0 9 -7 0 -8 4 -8 15 1 8 7 15 9 15 4 0 -5
14 -9 30 -10 17 -1 30 4 30 10 0 6 4 5 9 -2 4 -8 12 -14 16 -14 4 0 12 6 16
14 7 11 9 11 9 -1 0 -10 3 -11 13 -2 8 6 17 8 20 4 8 -7 349 -8 363 -1 5 2 19
3 31 2 12 0 20 3 17 7 -3 5 -2 9 3 9 16 0 58 45 61 65 2 11 4 75 5 142 1 67 5
125 9 128 4 4 1 16 -5 26 -10 16 -9 21 3 29 8 5 10 10 5 10 -7 0 -11 29 -12
70 -1 48 2 68 9 64 7 -5 8 -2 2 7 -5 8 -10 37 -12 64 -3 69 -4 75 -14 75 -4 0
-8 7 -8 16 0 8 -4 12 -10 9 -5 -3 -10 0 -10 8 0 14 -41 28 -87 31 -12 1 -25 5
-29 8 -4 4 -14 4 -23 0 -15 -8 -40 -8 -66 -2 -5 1 -12 1 -15 0 -15 -6 -110 -4
-110 3 0 5 -5 5 -12 1 -17 -11 -108 -11 -108 -1 0 5 -6 5 -12 0 -16 -10 -78
-10 -99 -1 -9 4 -19 5 -21 2z"/>
<path d="M2603 810 c-2 -3 -9 -5 -15 -5 -16 0 -21 -67 -6 -77 9 -5 10 -8 1 -8
-6 0 -11 -13 -11 -30 1 -16 4 -27 9 -25 4 3 10 -1 12 -7 4 -10 6 -10 6 -1 1 7
7 10 15 7 7 -3 34 -6 59 -7 38 -2 47 1 51 18 10 36 6 124 -5 131 -13 8 -108
11 -116 4z"/>
<path d="M2604 271 c-11 -23 -12 -111 -2 -117 5 -3 5 -11 1 -17 -11 -19 -11
-52 1 -62 19 -17 189 -12 206 5 14 14 23 110 10 110 -3 0 -4 20 -2 45 3 32 0
45 -9 47 -8 0 -55 2 -106 3 -76 2 -93 0 -99 -14z"/>
</g>
</svg>
