<?xml version="1.0" encoding="utf-8"?>
<svg viewBox="464.267 217.218 357.075 321.468" xmlns="http://www.w3.org/2000/svg">
  <clipPath id="p3.0">
    <path d="m0 0l1280.0 0l0 720.0l-1280.0 0l0 -720.0z" clip-rule="nonzero"/>
  </clipPath>
  <g clip-path="url(#p3.0)">
    <defs>
      <linearGradient id="p3.1" gradientUnits="userSpaceOnUse" gradientTransform="matrix(17.293510484346292 0.0 0.0 17.293510484346292 0.0 0.0)" spreadMethod="pad" x1="51.23555276412294" y1="17.87692524355519" x2="39.0071939336912" y2="5.648567005983101">
        <stop offset="0" stop-color="#125ac4"/>
        <stop offset="0.59" stop-color="#1158c0"/>
        <stop offset="0.88" stop-color="#061f44"/>
        <stop offset="1" stop-color="#061f44"/>
      </linearGradient>
    </defs>
    <path fill="url(#p3.1)" d="m573.692 220.5476l142.25397 0c10.776733 0 23.708923 7.757599 28.881836 16.80806l52.607544 91.16612l-106.9129 69.240204l-82.344604 -142.73627c-15.0876465 -26.28952 -37.072266 -34.90912 -56.47058 -25.858643c6.4661255 -5.1716156 14.656555 -8.619476 21.984741 -8.619476z" fill-rule="evenodd"/>
    <defs>
      <linearGradient id="p3.2" gradientUnits="userSpaceOnUse" gradientTransform="matrix(13.16554014248249 0.0 0.0 13.16554014248249 0.0 0.0)" spreadMethod="pad" x1="51.3826853866595" y1="44.27418012680169" x2="63.75424622481458" y2="39.7712999739278">
        <stop offset="0" stop-color="#0085f2"/>
        <stop offset="0.3" stop-color="#0085f2"/>
        <stop offset="0.62" stop-color="#004b89"/>
        <stop offset="1" stop-color="#004b89"/>
      </linearGradient>
    </defs>
    <path fill="url(#p3.2)" d="m660.3907 410.41678c13.764526 0.18838501 46.575317 -2.1082153 57.304688 1.1758728c10.729431 3.2840881 -3.7896729 15.440826 7.0718994 18.52893c10.861572 3.0881348 38.73163 0 58.097412 0c12.184326 -0.20870972 10.345154 -0.43225098 15.074402 -1.296875l-53.433777 93.06195c-5.615967 9.48053 -18.555725 16.799622 -29.32788 16.799622l-51.502563 0c0 -42.75644 -3.2841797 -85.51303 -3.2841797 -128.2695z" fill-rule="evenodd"/>
    <defs>
      <linearGradient id="p3.3" gradientUnits="userSpaceOnUse" gradientTransform="matrix(17.413216930013423 0.0 0.0 17.413216930013423 0.0 0.0)" spreadMethod="pad" x1="42.24553937543172" y1="29.88752705589725" x2="42.24553937543172" y2="12.474310125883832">
        <stop offset="0" stop-color="#018587"/>
        <stop offset="1" stop-color="#52fdfe"/>
      </linearGradient>
    </defs>
    <path fill="url(#p3.3)" d="m468.48877 391.53702c71.00696 123.71036 71.00696 123.71036 71.00696 123.71036c1.2988892 1.7302246 2.5977783 3.4603882 3.8967285 5.190613c-6.494568 -12.976593 -5.1956787 -30.278748 5.628601 -48.87854c126.859924 -219.73729 126.859924 -219.73729 126.859924 -219.73729c16.019897 -27.683426 39.400208 -35.901947 59.749756 -24.222992c-6.494507 -6.0557556 -16.019836 -10.381302 -23.813293 -10.381302c-142.87982 0 -142.87982 0 -142.87982 0c-10.824219 0 -23.813293 7.785965 -29.441895 17.302155c-71.00696 123.2778 -71.00696 123.2778 -71.00696 123.2778c-5.628601 9.516174 -5.628601 24.655548 0 33.739197z" fill-rule="evenodd"/>
    <defs>
      <linearGradient id="p3.4" gradientUnits="userSpaceOnUse" gradientTransform="matrix(15.794850891592823 0.0 0.0 15.794850891592823 0.0 0.0)" spreadMethod="pad" x1="36.09257064636045" y1="18.217724846806227" x2="24.923923823972956" y2="29.386370370970045">
        <stop offset="0" stop-color="#0085f2"/>
        <stop offset="0.5" stop-color="#0085f2"/>
        <stop offset="1" stop-color="#2b9fff"/>
      </linearGradient>
    </defs>
    <path fill="url(#p3.4)" d="m468.20264 389.62036c7.3237 13.356293 23.284943 21.97232 46.110046 21.97232c0 0 104.65747 -2.222107 157.63818 -0.9911804l0 128.08478l-100.29608 0c-9.491394 0 -20.69049 -5.6047974 -26.733398 -13.356262c-1.2808228 -1.296936 -1.7406616 -2.5788574 -2.5944824 -3.4433594l-15.501404 -27.144989l-39.213318 -67.64609l-16.388092 -28.42694c-1.3136902 -2.5788574 -2.5944824 -5.6047974 -3.0214539 -9.048279z" fill-rule="evenodd"/>
    <defs>
      <linearGradient id="p3.5" gradientUnits="userSpaceOnUse" gradientTransform="matrix(17.330283292863285 0.0 0.0 17.330283292863285 0.0 0.0)" spreadMethod="pad" x1="54.84913795222305" y1="22.960832562009962" x2="42.59477652435383" y2="10.706472317344096">
        <stop offset="0" stop-color="#2b7aec"/>
        <stop offset="0.5" stop-color="#125ac4"/>
        <stop offset="1" stop-color="#125ac4"/>
      </linearGradient>
    </defs>
    <path fill="url(#p3.5)" d="m762.773 268.70938c10.374939 17.979126 27.171997 47.087585 54.36682 94.21472c5.603882 9.481445 5.603882 24.565643 0 33.61612c0 0 0 0 -71.12695 123.25928c-1.2932129 2.5858765 -3.4486694 5.171692 -5.604004 7.326599c7.7593384 -12.929321 6.897217 -31.030273 -4.7417603 -50.855194c0 0 0 0 -80.65076 -139.80023z" fill-rule="evenodd"/>
    <path fill="#000000" fill-opacity="0.0" d="m499.7877 303.6839l107.14963 66.01575l-17.795288 28.881897l-107.14963 -66.01575z" fill-rule="evenodd"/>
    <path fill="#ffffff" d="m512.19836 323.91635l-6.5488586 10.628845l-1.4367065 -0.88516235l6.5488586 -10.628845l-3.7780151 -2.3276672l0.7704468 -1.2504578l8.992737 5.540497l-0.7704468 1.2504578l-3.7780151 -2.3276672zm1.123169 15.63092q-0.90460205 -0.5573425 -1.4395752 -1.3273926q-0.52163696 -0.7618408 -0.67160034 -1.6801147q-0.14178467 -0.9315491 0.095214844 -1.941742q0.24520874 -1.0234985 0.8927307 -2.0744019q0.6392822 -1.0375977 1.4432373 -1.7168579q0.80389404 -0.67926025 1.6915283 -0.95822144q0.895874 -0.29229736 1.8109131 -0.16897583q0.9365845 0.1182251 1.8411865 0.6755371q0.8912964 0.5491333 1.3781128 1.3078918q0.5083618 0.7536621 0.6481323 1.6289368q0.13977051 0.87524414 -0.07775879 1.8240356q-0.20935059 0.93548584 -0.79125977 1.8799744l-0.39343262 0.6385193l-6.3188477 -3.893097l-0.25408936 0.41238403q-0.34429932 0.5587158 -0.47460938 1.1574402q-0.10882568 0.59365845 -0.010864258 1.1495361q0.11126709 0.5640564 0.4590454 1.0719604q0.3692627 0.5028076 0.99450684 0.8880005q0.82476807 0.5081482 1.6876831 0.5075989q0.8711548 -0.013885498 1.65448 -0.5406189l0.5449219 1.2900391q-0.9830322 0.642334 -2.2318726 0.6437073q-1.227356 -0.0037231445 -2.4777832 -0.7741394zm4.95874 -8.048126q-0.5587158 -0.34423828 -1.1472778 -0.43154907q-0.5670166 -0.092437744 -1.1209106 0.061828613q-0.55389404 0.15429688 -1.043396 0.5317383q-0.4812622 0.36416626 -0.84191895 0.9494629l-0.073791504 0.11972046l4.842285 2.983368l0.122924805 -0.19955444q0.72125244 -1.1706238 0.5171509 -2.2690735q-0.2041626 -1.0984497 -1.2550659 -1.7459412zm4.362793 13.791229q-0.93115234 -0.57373047 -1.4661255 -1.3437805q-0.53497314 -0.77005005 -0.67163086 -1.6801147q-0.12335205 -0.90185547 0.13513184 -1.9171448q0.25854492 -1.0153198 0.90600586 -2.0662231q0.6557007 -1.064209 1.4463501 -1.751648q0.7905884 -0.6874695 1.6434326 -0.96954346q0.87438965 -0.2871704 1.8027344 -0.15563965q0.9365845 0.1182251 1.8677979 0.69192505q1.3036499 0.80322266 1.736084 1.8587952q0.44573975 1.0637817 0.27929688 2.227539l-1.5046997 -0.11953735q0.18676758 -0.8392639 -0.12915039 -1.5477905q-0.315979 -0.7084961 -1.1274414 -1.2084656q-0.62524414 -0.38519287 -1.2137451 -0.47253418q-0.56707764 -0.09240723 -1.0942993 0.07824707q-0.519104 0.15734863 -0.9819946 0.5512085q-0.44140625 0.3887329 -0.79382324 0.9607544l-0.9262085 1.5032043q-0.71307373 1.1573486 -0.54681396 2.287506q0.17443848 1.1168518 1.3850098 1.8626709q1.6495361 1.0163269 3.3237915 -0.06271362l0.57458496 1.271637q-1.0158691 0.6955261 -2.2114868 0.7297058q-1.182312 0.0423584 -2.4328003 -0.72805786zm5.415344 3.0611572l5.409607 -8.779785l1.3568726 0.83599854l-0.87701416 1.4233704l0.06652832 0.040985107q0.79156494 -0.54003906 1.6473389 -0.6184082q0.8640137 -0.091674805 1.8484497 0.51483154q1.3701782 0.84420776 1.6140747 2.2057495q0.25726318 1.3697205 -0.72631836 2.966034l-3.4752197 5.6403503l-1.3701782 -0.84417725l3.3276978 -5.4009094q1.4589233 -2.367859 -0.536499 -3.5972595q-0.3991089 -0.24588013 -0.85046387 -0.37713623q-0.45135498 -0.13128662 -0.880249 -0.12023926q-0.42889404 0.011016846 -0.81188965 0.21554565q-0.3696289 0.21270752 -0.631897 0.6383972l-3.7539062 6.092621l-1.3569336 -0.835968zm12.861206 8.199158q-0.8779907 -0.5409546 -1.4129639 -1.3110046q-0.5349121 -0.77001953 -0.6848755 -1.6882935q-0.14178467 -0.9315796 0.08190918 -1.9499512q0.23187256 -1.0316772 0.87939453 -2.0825806q0.63934326 -1.0376282 1.456543 -1.7086792q0.8171997 -0.671051 1.704895 -0.9500427q0.895813 -0.29226685 1.8241577 -0.1607666q0.9365845 0.1182251 1.8145752 0.65914917q0.8912964 0.5491333 1.4047241 1.3242798q0.53497314 0.77005005 0.6767578 1.7016296q0.16326904 0.92645264 -0.068603516 1.9581299q-0.2319336 1.0316772 -0.8712158 2.0693054q-0.647522 1.0509033 -1.4647827 1.7219543q-0.809021 0.6577759 -1.7181396 0.941864q-0.8876343 0.27896118 -1.81604 0.14746094q-0.91503906 -0.12332153 -1.8063354 -0.67245483zm0.7458496 -1.2105713q1.1174316 0.68847656 2.227234 0.43624878q1.1230469 -0.24404907 1.9836426 -1.6408386l0.7786865 -1.2637634q0.8605957 -1.3967896 0.57354736 -2.509613q-0.27374268 -1.1046143 -1.3911743 -1.7930908q-1.104126 -0.68026733 -2.227234 -0.43621826q-1.1097412 0.2522583 -1.9703369 1.6490479l-0.7786865 1.2637329q-0.8605957 1.3967896 -0.586853 2.5014038q0.28704834 1.1128235 1.3911743 1.7930908zm7.050171 5.7384644q-0.71832275 -0.44256592 -0.84490967 -1.0711365q-0.113342285 -0.62039185 0.2637329 -1.2322998l6.8930664 -11.187561l1.3568726 0.83599854l-7.024231 11.400391l1.2904053 0.7950134l-0.7376709 1.1972351l-1.1972656 -0.7376404zm6.3709717 4.2005005q-0.8779907 -0.5409241 -1.4129028 -1.3109741q-0.53497314 -0.77005005 -0.6849365 -1.6882935q-0.14178467 -0.9315796 0.08190918 -1.9499512q0.2319336 -1.0316772 0.87939453 -2.082611q0.63934326 -1.0375977 1.456543 -1.7086487q0.81726074 -0.67108154 1.704895 -0.9500427q0.895813 -0.29229736 1.8242188 -0.1607666q0.9365845 0.1182251 1.8145752 0.65914917q0.89123535 0.5491333 1.4047241 1.3242798q0.5349121 0.77005005 0.6766968 1.7016296q0.16326904 0.92645264 -0.068603516 1.9581299q-0.23187256 1.0316772 -0.8712158 2.0693054q-0.647522 1.0509033 -1.4647217 1.7219543q-0.809021 0.65774536 -1.7182007 0.9418335q-0.8876343 0.2789917 -1.815979 0.14746094q-0.9151001 -0.12332153 -1.8063965 -0.67245483zm0.74591064 -1.2105408q1.1174316 0.68847656 2.2271729 0.43621826q1.1230469 -0.24404907 1.9837036 -1.6408081l0.7786255 -1.2637634q0.8605957 -1.3967896 0.57354736 -2.509613q-0.27374268 -1.1046143 -1.3911743 -1.7930908q-1.104126 -0.68026733 -2.2271729 -0.43621826q-1.1097412 0.2522583 -1.970398 1.6490173l-0.7786255 1.2637634q-0.8605957 1.3967896 -0.586853 2.5014038q0.2869873 1.1128235 1.3911743 1.7930908zm12.411499 10.381378q-0.83599854 1.3568726 -2.2937012 1.3397217q-1.4576416 -0.017150879 -3.5860596 -1.3285217q-2.0619507 -1.2703857 -2.6223145 -2.3864136q-0.56036377 -1.1160583 0.07897949 -2.153656q0.44256592 -0.7183533 1.0609741 -0.88793945q0.61834717 -0.16958618 1.3849487 0.045776367l0.114746094 -0.18624878q-0.5553589 -0.85601807 -0.030822754 -1.7073975q0.40979004 -0.6651306 1.048584 -0.7487488q0.6470337 -0.09689331 1.4187012 0.13998413l0.041015625 -0.06652832q-0.5554199 -0.85601807 -0.56817627 -1.8182373q0.008728027 -0.9673157 0.5742798 -1.8851929q0.40979004 -0.6651306 0.99346924 -1.0763245q0.58374023 -0.41119385 1.25531 -0.54800415q0.6930542 -0.14190674 1.4228516 0.0140686035q0.7512207 0.1508789 1.4962158 0.6098633q0.94451904 0.5819092 1.4630737 1.3785706l0.09832764 -0.15963745q0.3114624 -0.5055237 0.7424927 -0.69873047q0.44439697 -0.1850586 0.9898071 0.15097046l1.3169556 0.8114319l-0.7376709 1.1972351l-1.6628418 -1.0245056l-0.34423828 0.5587158q0.21972656 0.6859436 0.13336182 1.421875q-0.08642578 0.7359314 -0.5289917 1.4542847q-0.40985107 0.6651306 -0.9935303 1.076294q-0.5836792 0.41119385 -1.2767944 0.5531006q-0.6715698 0.1368103 -1.4228516 -0.014038086q-0.743042 -0.16418457 -1.5013428 -0.63134766q-0.42565918 -0.26226807 -0.79400635 -0.6176758q-0.51275635 -0.15075684 -1.0194702 -0.13259888q-0.49847412 0.004852295 -0.7525635 0.41723633q-0.23773193 0.38580322 0.0446167 0.7615967q0.303833 0.37072754 0.9024658 0.7395325l1.8623657 1.1474609q1.6362915 1.0080872 1.9959717 2.0922852q0.36798096 1.0709229 -0.30413818 2.1617432zm-1.3426514 -0.6804199q0.32788086 -0.5321045 0.11218262 -1.1054382q-0.21057129 -0.55184937 -1.2216187 -1.1747437l-2.9398804 -1.8113098q-1.0410156 -0.12747192 -1.5409546 0.6839905q-0.36065674 0.58532715 -0.18084717 1.2466736q0.18487549 0.6828308 1.2225342 1.3221436l1.263794 0.778595q1.144043 0.7048645 1.9905396 0.730896q0.8598633 0.034240723 1.2942505 -0.6708069zm0.07952881 -6.9799805q0.8779907 0.5409241 1.6375732 0.44000244q0.7811279 -0.106048584 1.3138428 -0.97073364l0.29510498 -0.47888184q0.53271484 -0.86468506 0.26800537 -1.5967102q-0.2432251 -0.7371216 -1.1212158 -1.2780762q-0.86468506 -0.53274536 -1.645752 -0.42669678q-0.7595825 0.10095215 -1.2923584 0.9656067l-0.29510498 0.47891235q-0.53271484 0.86465454 -0.28948975 1.6018066q0.26470947 0.73202515 1.1293945 1.2647705zm3.4423828 7.6632996l5.409546 -8.779755l1.3568726 0.83599854l-5.409546 8.779755l-1.3568726 -0.83599854zm6.9505005 -9.463745l-0.63720703 -0.96151733l3.2285767 -1.9933167l0.88165283 1.3690491l-3.4730225 1.5857849zm3.6917725 16.020569q-0.7715454 -0.4753723 -0.85827637 -1.0793762q-0.07849121 -0.61727905 0.22692871 -1.2916565l-0.09307861 -0.057373047q-0.7875366 0.6526489 -1.7067871 0.6552124q-0.91101074 -0.01071167 -1.8289185 -0.5762329q-1.3967896 -0.8605957 -1.7472534 -2.0491943q-0.3289795 -1.1936951 0.42504883 -2.4175415q0.7705078 -1.2504578 2.0849 -1.3582764q1.3276978 -0.099609375 3.2565918 1.0888062l1.7293701 1.0654907l0.5327759 -0.86468506q0.57373047 -0.93118286 0.371521 -1.7348328q-0.1940918 -0.81695557 -1.2583008 -1.4726257q-0.79815674 -0.49176025 -1.5515747 -0.4604187q-0.75341797 0.031341553 -1.4814453 0.4086609l-0.34936523 -1.2797241q0.7935791 -0.48373413 1.8898926 -0.50567627q1.0963135 -0.021942139 2.2802734 0.70751953q1.6096802 0.9916992 2.0040894 2.317505q0.40771484 1.3339844 -0.4529419 2.730774l-2.9752197 4.8288574l0.99768066 0.6147156l-0.7376709 1.1972351l-0.75823975 -0.4671631zm-3.3342285 -3.3756409q0.5187988 0.31967163 1.0183105 0.46221924q0.49945068 0.1425476 0.93652344 0.11819458q0.4453125 -0.037628174 0.7770996 -0.21862793q0.35321045 -0.18612671 0.5663452 -0.5319824l0.8933716 -1.4500122l-1.7958984 -1.1064453q-1.1838989 -0.72943115 -1.9291382 -0.7114258q-0.73706055 0.0047302246 -1.1386719 0.6565552l-0.22125244 0.3591919q-0.40167236 0.65182495 -0.15734863 1.2978516q0.25250244 0.63272095 1.0506592 1.1244812z" fill-rule="nonzero"/>
    <path fill="#000000" fill-opacity="0.0" d="m689.4905 395.45767l107.49609 -65.44882l17.669312 28.97638l-107.49609 65.44882z" fill-rule="evenodd"/>
    <path fill="#ffffff" d="m734.51605 395.20575l-1.4413452 0.8775635l-7.2643433 -11.912994l4.7511597 -2.8927307q1.5748291 -0.9588318 2.9710693 -0.61987305q1.4095459 0.33084106 2.4101562 1.9717102q0.8053589 1.3207092 0.7172241 2.5267944q-0.08807373 1.2061157 -1.1050415 2.2094421l5.94104 3.5903625l-1.6282349 0.991333l-5.699463 -3.5544739l-2.776001 1.6901245l3.1237793 5.1227417zm-0.5623779 -8.365204q0.854187 -0.52005005 1.0527954 -1.24469q0.19055176 -0.7379761 -0.30566406 -1.5517273l-0.54504395 -0.8937988q-0.49621582 -0.81378174 -1.2317505 -0.9696045q-0.7437134 -0.16918945 -1.5978394 0.3508606l-3.3098145 2.0151672l2.6275635 4.30896l3.3097534 -2.0151672zm13.09613 1.0084534q-0.90753174 0.55252075 -1.836792 0.6792908q-0.9159546 0.11859131 -1.8024902 -0.16482544q-0.89471436 -0.29675293 -1.687439 -0.96655273q-0.8009033 -0.683136 -1.4435425 -1.73703q-0.6345215 -1.0405579 -0.8748779 -2.0650024q-0.24035645 -1.0244141 -0.0859375 -1.9416199q0.14630127 -0.9305725 0.6717529 -1.6895142q0.53063965 -0.780426 1.4381714 -1.3329773q0.8942261 -0.5444336 1.791565 -0.63345337q0.9025879 -0.11047363 1.7461548 0.1625061q0.8435669 0.27297974 1.5904541 0.8975525q0.73876953 0.6112366 1.3162842 1.5584106l0.39050293 0.64035034l-6.3393555 3.8596802l0.25219727 0.4135437q0.3416748 0.56030273 0.8161621 0.9482727q0.4796753 0.3664856 1.0195923 0.5316467q0.5532837 0.15707397 1.1639404 0.07797241q0.6157837 -0.1005249 1.243042 -0.48242188q0.8274536 -0.5038147 1.218811 -1.272583q0.38323975 -0.7821045 0.2694702 -1.7189941l1.3972778 0.1005249q0.12609863 1.1671753 -0.43981934 2.2800293q-0.5606079 1.0913696 -1.8151245 1.8551941zm-4.92157 -8.070953q-0.56048584 0.34127808 -0.9055786 0.82577515q-0.3399048 0.4630432 -0.45391846 1.0263672q-0.11401367 0.563324 1.2207031E-4 1.1706848q0.10601807 0.59402466 0.46398926 1.1809998l0.07318115 0.12005615l4.85791 -2.9577332l-0.12200928 -0.20010376q-0.7158203 -1.1739502 -1.7875977 -1.4909668q-1.0717773 -0.3170166 -2.1260986 0.32492065zm15.621643 -0.69384766l-0.06677246 0.040618896q0.1998291 2.128418 -1.5751953 3.209137q-0.8273926 0.5037842 -1.6899414 0.5899048q-0.8491821 0.07797241 -1.6957397 -0.22982788q-0.8331299 -0.31591797 -1.6073608 -1.0153198q-0.7608032 -0.70751953 -1.4035034 -1.7614136q-0.65075684 -1.0672302 -0.93115234 -2.0672607q-0.2670288 -1.0081787 -0.15789795 -1.8795776q0.11444092 -0.89282227 0.5731201 -1.611145q0.46392822 -0.7398071 1.2913818 -1.2435913q0.92089844 -0.56066895 1.8188477 -0.55862427q0.89801025 0.0020446777 1.7575073 0.6312256l0.066711426 -0.040618896l-3.2050781 -5.256134l1.3746338 -0.83691406l7.7036133 12.633362l-1.3746338 0.8369446l-0.87854004 -1.4407654zm-2.0166626 1.7949219q0.46710205 -0.28442383 0.8076172 -0.6563721q0.34051514 -0.37194824 0.5092163 -0.78564453q0.16864014 -0.41366577 0.13879395 -0.8528137q-0.016540527 -0.44726562 -0.27685547 -0.874176l-2.0011597 -3.2817383q-0.21960449 -0.36016846 -0.5935669 -0.5532532q-0.36871338 -0.21453857 -0.80584717 -0.24108887q-0.44525146 -0.039886475 -0.9403076 0.07858276q-0.49505615 0.118499756 -0.96221924 0.40289307q-1.1610718 0.7069397 -1.3809814 1.8469543q-0.22802734 1.126648 0.487854 2.3006287l0.9192505 1.5074463q0.7158203 1.1739502 1.8305664 1.5014038q1.1065674 0.3140869 2.2676392 -0.39282227zm10.603027 -4.7726746q-0.9074707 0.55255127 -1.836792 0.6792908q-0.91589355 0.118621826 -1.8024292 -0.16482544q-0.89471436 -0.29675293 -1.687439 -0.96655273q-0.8009033 -0.683136 -1.4435425 -1.73703q-0.6345215 -1.0405579 -0.8748779 -2.064972q-0.24035645 -1.0244446 -0.0859375 -1.9416504q0.14630127 -0.9305725 0.6717529 -1.6895142q0.53063965 -0.780426 1.4381714 -1.3329773q0.89416504 -0.5444031 1.791565 -0.63345337q0.90252686 -0.11047363 1.7461548 0.1625061q0.8435669 0.27297974 1.5904541 0.8975525q0.7387085 0.6112366 1.3162842 1.5584106l0.39050293 0.64035034l-6.3393555 3.8596802l0.25219727 0.4135437q0.3416748 0.56030273 0.8161011 0.9482727q0.47973633 0.3664856 1.0196533 0.53167725q0.5532837 0.15704346 1.1638794 0.07797241q0.6158447 -0.10055542 1.243103 -0.4824524q0.8274536 -0.5038147 1.218811 -1.272583q0.38323975 -0.7821045 0.2694702 -1.7189636l1.3972168 0.1005249q0.12609863 1.1671448 -0.4397583 2.2799988q-0.56066895 1.0913696 -1.8151855 1.8551941zm-4.921509 -8.070953q-0.5605469 0.34127808 -0.9055786 0.82577515q-0.3399048 0.4630432 -0.45391846 1.0263672q-0.11401367 0.5633545 1.2207031E-4 1.1706848q0.10601807 0.59402466 0.46392822 1.1809998l0.07324219 0.12005615l4.85791 -2.9577332l-0.12200928 -0.20010376q-0.71588135 -1.1739502 -1.7875977 -1.4909668q-1.0717773 -0.3170166 -2.1260986 0.32492065zm13.63269 2.7671814q-1.2278442 0.7475586 -2.3399658 0.7844238q-1.1121826 0.036865234 -2.192688 -0.384552l0.4942627 -1.380249q0.9057617 0.34490967 1.7445068 0.30984497q0.8521118 -0.043182373 1.6929321 -0.5550842q0.8674927 -0.5281677 1.1201782 -1.1942444q0.2659912 -0.6741638 -0.14886475 -1.3545227q-0.31726074 -0.5202942 -0.87054443 -0.67733765q-0.56140137 -0.17037964 -1.5102539 0.22436523l-0.7723999 0.3239441q-0.6627197 0.2937317 -1.2756348 0.42907715q-0.6210327 0.12200928 -1.1870117 0.06417847q-0.5741577 -0.07119751 -1.0560913 -0.3814087q-0.48199463 -0.31021118 -0.8562012 -0.92388916q-0.3986206 -0.6536865 -0.4512329 -1.2801819q-0.06072998 -0.63986206 0.15771484 -1.2119446q0.22369385 -0.59350586 0.6999512 -1.1029968q0.48962402 -0.51763916 1.1435547 -0.9157715q1.0810547 -0.6582031 2.02948 -0.7234497q0.961792 -0.07336426 1.9157715 0.26049805l-0.40319824 1.3796387q-0.54577637 -0.23477173 -1.3096924 -0.22702026q-0.763916 0.0077819824 -1.618042 0.52783203q-0.854126 0.52001953 -1.0667725 1.1617126q-0.2074585 0.62020874 0.18304443 1.2605591q0.3904419 0.6403198 0.996521 0.6737976q0.61932373 0.02532959 1.5148315 -0.33691406l0.7456665 -0.30770874q1.6115723 -0.68847656 2.6078491 -0.43527222q0.9962158 0.25323486 1.6063232 1.2537537q0.7809448 1.2806702 0.34753418 2.5506897q-0.42010498 1.2619019 -1.9415283 2.1882324z" fill-rule="nonzero"/>
    <path fill="#000000" fill-opacity="0.0" d="m577.01324 479.51453l125.85828 0l0 33.921265l-125.85828 0z" fill-rule="evenodd"/>
    <path fill="#ffffff" d="m588.5818 502.71454l0 -13.953125l8.515625 0l0 1.46875l-6.828125 0l0 4.6875l6.4375 0l0 1.484375l-6.4375 0l0 4.828125l6.828125 0l0 1.484375l-8.515625 0zm13.206848 0q-0.84375 0 -1.28125 -0.46875q-0.421875 -0.46875 -0.421875 -1.1875l0 -13.140625l1.59375 0l0 13.390625l1.515625 0l0 1.40625l-1.40625 0zm7.6118774 0.234375q-1.0625 0 -1.921875 -0.375q-0.84375 -0.375 -1.453125 -1.078125q-0.609375 -0.71875 -0.9375 -1.703125q-0.328125 -1.0 -0.328125 -2.234375q0 -1.21875 0.328125 -2.21875q0.328125 -1.0 0.9375 -1.703125q0.609375 -0.71875 1.453125 -1.09375q0.859375 -0.390625 1.921875 -0.390625q1.046875 0 1.859375 0.390625q0.828125 0.375 1.40625 1.046875q0.578125 0.671875 0.890625 1.59375q0.3125 0.90625 0.3125 2.015625l0 0.75l-7.421875 0l0 0.484375q0 0.65625 0.203125 1.234375q0.21875 0.5625 0.59375 0.984375q0.390625 0.421875 0.953125 0.671875q0.578125 0.234375 1.3125 0.234375q0.96875 0 1.703125 -0.453125q0.734375 -0.46875 1.125 -1.328125l1.140625 0.8125q-0.5 1.0625 -1.5625 1.71875q-1.046875 0.640625 -2.515625 0.640625zm0 -9.453125q-0.65625 0 -1.203125 0.234375q-0.53125 0.21875 -0.921875 0.640625q-0.390625 0.421875 -0.609375 1.0q-0.21875 0.5625 -0.21875 1.25l0 0.140625l5.6875 0l0 -0.234375q0 -1.375 -0.75 -2.203125q-0.75 -0.828125 -1.984375 -0.828125zm10.94873 9.453125q-1.09375 0 -1.953125 -0.375q-0.859375 -0.375 -1.453125 -1.078125q-0.578125 -0.703125 -0.890625 -1.703125q-0.3125 -1.0 -0.3125 -2.234375q0 -1.25 0.3125 -2.25q0.3125 -1.0 0.890625 -1.6875q0.59375 -0.703125 1.453125 -1.078125q0.859375 -0.390625 1.953125 -0.390625q1.53125 0 2.453125 0.671875q0.9375 0.671875 1.40625 1.75l-1.34375 0.6875q-0.28125 -0.8125 -0.921875 -1.25q-0.640625 -0.4375 -1.59375 -0.4375q-0.734375 0 -1.28125 0.234375q-0.53125 0.21875 -0.890625 0.640625q-0.359375 0.40625 -0.546875 0.984375q-0.171875 0.5625 -0.171875 1.234375l0 1.765625q0 1.359375 0.734375 2.234375q0.734375 0.859375 2.15625 0.859375q1.9375 0 2.796875 -1.796875l1.15625 0.78125q-0.5 1.125 -1.5 1.78125q-0.984375 0.65625 -2.453125 0.65625zm8.497498 -0.234375q-0.84375 0 -1.28125 -0.46875q-0.421875 -0.46875 -0.421875 -1.234375l0 -7.21875l-1.703125 0l0 -1.390625l0.96875 0q0.515625 0 0.703125 -0.203125q0.1875 -0.21875 0.1875 -0.75l0 -1.921875l1.4375 0l0 2.875l2.265625 0l0 1.390625l-2.265625 0l0 7.515625l2.109375 0l0 1.40625l-2.0 0zm4.7387695 0l0 -10.3125l1.59375 0l0 1.890625l0.109375 0q0.28125 -0.734375 1.0 -1.3125q0.71875 -0.578125 1.96875 -0.578125l0.625 0l0 1.59375l-0.9375 0q-1.296875 0 -2.03125 0.5q-0.734375 0.484375 -0.734375 1.21875l0 7.0l-1.59375 0zm8.136841 -12.734375q-0.515625 0 -0.75 -0.25q-0.234375 -0.25 -0.234375 -0.65625l0 -0.265625q0 -0.390625 0.234375 -0.640625q0.234375 -0.25 0.75 -0.25q0.515625 0 0.75 0.25q0.234375 0.25 0.234375 0.640625l0 0.265625q0 0.40625 -0.234375 0.65625q-0.234375 0.25 -0.75 0.25zm-0.796875 2.421875l1.59375 0l0 10.3125l-1.59375 0l0 -10.3125zm8.84375 10.546875q-1.09375 0 -1.953125 -0.375q-0.859375 -0.375 -1.453125 -1.078125q-0.578125 -0.703125 -0.890625 -1.703125q-0.3125 -1.0 -0.3125 -2.234375q0 -1.25 0.3125 -2.25q0.3125 -1.0 0.890625 -1.6875q0.59375 -0.703125 1.453125 -1.078125q0.859375 -0.390625 1.953125 -0.390625q1.53125 0 2.453125 0.671875q0.9375 0.671875 1.40625 1.75l-1.34375 0.6875q-0.28125 -0.8125 -0.921875 -1.25q-0.640625 -0.4375 -1.59375 -0.4375q-0.734375 0 -1.28125 0.234375q-0.53125 0.21875 -0.890625 0.640625q-0.359375 0.40625 -0.546875 0.984375q-0.171875 0.5625 -0.171875 1.234375l0 1.765625q0 1.359375 0.734375 2.234375q0.734375 0.859375 2.15625 0.859375q1.9375 0 2.796875 -1.796875l1.15625 0.78125q-0.5 1.125 -1.5 1.78125q-0.984375 0.65625 -2.453125 0.65625zm7.0131226 -12.96875q-0.515625 0 -0.75 -0.25q-0.234375 -0.25 -0.234375 -0.65625l0 -0.265625q0 -0.390625 0.234375 -0.640625q0.234375 -0.25 0.75 -0.25q0.515625 0 0.75 0.25q0.234375 0.25 0.234375 0.640625l0 0.265625q0 0.40625 -0.234375 0.65625q-0.234375 0.25 -0.75 0.25zm-0.796875 2.421875l1.59375 0l0 10.3125l-1.59375 0l0 -10.3125zm11.59375 8.625l-0.078125 0q-0.9375 1.921875 -3.015625 1.921875q-0.96875 0 -1.75 -0.375q-0.765625 -0.375 -1.328125 -1.078125q-0.546875 -0.703125 -0.84375 -1.703125q-0.28125 -1.0 -0.28125 -2.234375q0 -1.25 0.28125 -2.25q0.296875 -1.0 0.84375 -1.6875q0.5625 -0.703125 1.328125 -1.078125q0.78125 -0.390625 1.75 -0.390625q1.078125 0 1.84375 0.46875q0.765625 0.46875 1.171875 1.453125l0.078125 0l0 -6.15625l1.609375 0l0 14.796875l-1.609375 0l0 -1.6875zm-2.65625 0.484375q0.546875 0 1.03125 -0.140625q0.484375 -0.140625 0.84375 -0.40625q0.359375 -0.265625 0.5625 -0.65625q0.21875 -0.390625 0.21875 -0.890625l0 -3.84375q0 -0.421875 -0.21875 -0.78125q-0.203125 -0.375 -0.5625 -0.625q-0.359375 -0.265625 -0.84375 -0.421875q-0.484375 -0.15625 -1.03125 -0.15625q-1.359375 0 -2.140625 0.859375q-0.78125 0.84375 -0.78125 2.21875l0 1.765625q0 1.375 0.78125 2.234375q0.78125 0.84375 2.140625 0.84375zm15.162476 1.203125q-0.90625 0 -1.296875 -0.46875q-0.390625 -0.484375 -0.484375 -1.21875l-0.109375 0q-0.328125 0.96875 -1.109375 1.453125q-0.78125 0.46875 -1.859375 0.46875q-1.640625 0 -2.5625 -0.828125q-0.90625 -0.84375 -0.90625 -2.28125q0 -1.46875 1.0625 -2.25q1.078125 -0.78125 3.34375 -0.78125l2.03125 0l0 -1.015625q0 -1.09375 -0.59375 -1.671875q-0.59375 -0.59375 -1.84375 -0.59375q-0.9375 0 -1.5625 0.421875q-0.625 0.421875 -1.046875 1.125l-0.96875 -0.90625q0.421875 -0.828125 1.34375 -1.421875q0.921875 -0.59375 2.3125 -0.59375q1.890625 0 2.921875 0.921875q1.046875 0.921875 1.046875 2.5625l0 5.671875l1.171875 0l0 1.40625l-0.890625 0zm-4.609375 -1.125q0.609375 0 1.109375 -0.140625q0.5 -0.140625 0.859375 -0.390625q0.359375 -0.265625 0.546875 -0.59375q0.203125 -0.34375 0.203125 -0.75l0 -1.703125l-2.109375 0q-1.390625 0 -2.015625 0.40625q-0.625 0.390625 -0.625 1.15625l0 0.421875q0 0.765625 0.546875 1.1875q0.546875 0.40625 1.484375 0.40625zm14.383118 -0.5625l-0.078125 0q-0.9375 1.921875 -3.015625 1.921875q-0.96875 0 -1.75 -0.375q-0.765625 -0.375 -1.328125 -1.078125q-0.546875 -0.703125 -0.84375 -1.703125q-0.28125 -1.0 -0.28125 -2.234375q0 -1.25 0.28125 -2.25q0.296875 -1.0 0.84375 -1.6875q0.5625 -0.703125 1.328125 -1.078125q0.78125 -0.390625 1.75 -0.390625q1.078125 0 1.84375 0.46875q0.765625 0.46875 1.171875 1.453125l0.078125 0l0 -6.15625l1.609375 0l0 14.796875l-1.609375 0l0 -1.6875zm-2.65625 0.484375q0.546875 0 1.03125 -0.140625q0.484375 -0.140625 0.84375 -0.40625q0.359375 -0.265625 0.5625 -0.65625q0.21875 -0.390625 0.21875 -0.890625l0 -3.84375q0 -0.421875 -0.21875 -0.78125q-0.203125 -0.375 -0.5625 -0.625q-0.359375 -0.265625 -0.84375 -0.421875q-0.484375 -0.15625 -1.03125 -0.15625q-1.359375 0 -2.140625 0.859375q-0.78125 0.84375 -0.78125 2.21875l0 1.765625q0 1.375 0.78125 2.234375q0.78125 0.84375 2.140625 0.84375z" fill-rule="nonzero"/>
    <path fill="#ffffff" d="m640.0713 446.1659l12.62439 12.62439l0 0l0 18.57666l-7.8483276 0l0 -8.602417c0 -1.355072 -1.0985107 -2.4535828 -2.4535522 -2.4535828l-4.6450806 0c-1.3550415 0 -2.4535522 1.0985107 -2.4535522 2.4535828l0 8.602417l-7.8483276 0l0 -18.57666l6.1035156E-5 0zm-13.4210205 -6.284363l5.223877 0l0 5.076599l-5.223877 5.223877zm13.4210205 -1.397583l19.444824 20.306305l-3.9630737 0l-15.4817505 -16.167664zm0 -0.08584595l0 4.1386414l-15.595276 16.167694l-3.9921265 0z" fill-rule="evenodd"/>
    <path fill="#ffffff" d="m580.42487 287.26123l-2.828247 5.135071c-7.2894287 -1.6529541 -14.982483 1.4661255 -18.662048 8.146942c-4.489563 8.151459 -1.3040161 18.518555 7.1151123 23.155548c8.419189 4.6369934 18.883728 1.7879333 23.373291 -6.3635254c3.6795654 -6.680786 2.2036743 -14.8498535 -3.0896606 -20.127075l2.828247 -5.1351013c8.100098 6.971649 10.606934 18.645813 5.403137 28.094086c-6.003845 10.900879 -19.998047 14.710876 -31.256836 8.509857c-11.25885 -6.200989 -15.51886 -20.06482 -9.515015 -30.965698c5.2037964 -9.448273 16.410278 -13.56955 26.632019 -10.450104zm8.871521 -5.7702026c1.5079956 0.8305664 2.0786133 2.6875305 1.2744141 4.147583l-9.973267 18.10791c-0.8041382 1.460083 -2.6785278 1.970398 -4.1865234 1.1398315c-1.5080566 -0.8305664 -2.0786133 -2.6875 -1.2744751 -4.147583l9.973267 -18.10791c0.8041382 -1.460083 2.6785278 -1.970398 4.1865845 -1.1398315z" fill-rule="evenodd"/>
    <path fill="#ffffff" d="m744.374 287.8777c3.9974365 2.6018677 5.128784 7.95166 2.5268555 11.949097c-1.9047852 2.9264832 -5.2823486 4.316864 -8.520935 3.8110962l-3.7662964 9.75473c0.097229004 0.029693604 0.18115234 0.08227539 0.2644043 0.13647461c3.9974365 2.6018677 5.128723 7.95166 2.5268555 11.949097l-0.305542 0.4008484l8.343079 9.356354c2.6121216 -1.2762146 5.805603 -1.1716614 8.420471 0.5303345c3.9974365 2.6018677 5.128723 7.95166 2.5268555 11.949097c-2.6018677 3.9974365 -7.95166 5.1287537 -11.949097 2.526886c-3.9974365 -2.6018677 -5.128723 -7.95166 -2.5268555 -11.949097l0.8759155 -1.0887756l-8.157043 -9.147675c-1.7055054 1.146637 -3.7960205 1.5593567 -5.8270264 1.2268677l-4.7458496 12.940857c3.2873535 2.741211 4.0582275 7.570862 1.66156 11.253021c-2.6018677 3.997467 -7.95166 5.128784 -11.949097 2.526886c-3.9974365 -2.6018677 -5.128723 -7.95166 -2.5268555 -11.949097c2.1811523 -3.3509827 6.293213 -4.6878967 9.910034 -3.4665527l4.564575 -12.446625c-0.09716797 -0.029693604 -0.18103027 -0.08224487 -0.2642212 -0.13644409c-2.7838745 -1.8119812 -4.1776733 -4.956665 -3.84906 -8.045502l-13.594238 -2.5780945c-0.19702148 1.1001282 -0.61346436 2.179535 -1.2614136 3.1750793c-2.6019287 3.9974365 -7.95166 5.1287537 -11.949097 2.526886c-3.9974365 -2.6018677 -5.128784 -7.95166 -2.5268555 -11.949097c2.6018677 -3.997467 7.95166 -5.128784 11.949097 -2.526886c1.9868774 1.2932434 3.265686 3.2653809 3.7263794 5.4136353l14.599487 2.7687683c0.087646484 -0.26229858 0.22686768 -0.50042725 0.3788452 -0.7338867c1.9199219 -2.949707 5.3360596 -4.338806 8.598755 -3.8048706l3.755371 -9.72641c-0.12133789 -0.037506104 -0.2267456 -0.102996826 -0.33129883 -0.17102051c-3.9974365 -2.6018677 -5.128723 -7.95166 -2.5268555 -11.949097c2.6019287 -3.9974365 7.951721 -5.128784 11.949097 -2.526886z" fill-rule="evenodd"/>
  </g>
</svg>