<?xml version="1.0" encoding="utf-8"?>
<svg viewBox="57.556 35.914 571.209 656.966" xmlns="http://www.w3.org/2000/svg">
  <clipPath id="p2.0">
    <path d="m0 0l1280.0 0l0 720.0l-1280.0 0l0 -720.0z" clip-rule="nonzero"/>
  </clipPath>
  <g clip-path="url(#p2.0)">
    <path fill="#0aa6ed" d="m148.84126 204.65941l0 0c0 -10.436523 8.4604645 -18.896988 18.896988 -18.896988l326.8017 0c5.0118103 0 9.818329 1.990921 13.362213 5.53479c3.5438538 3.5438843 5.53479 8.350403 5.53479 13.362198l0 326.8017c0 10.436523 -8.46048 18.896973 -18.897003 18.896973l-326.8017 0c-10.436523 0 -18.896988 -8.460449 -18.896988 -18.896973z" fill-rule="evenodd"/>
    <path fill="#0aa6ed" d="m240.4888 197.14566c-2.456192 0 -2.456192 -0.03779602 -2.493988 -2.4561768c-0.07556152 -5.81929 0.642395 -11.600769 0.3023224 -17.42006c0.18890381 -0.03779602 0.3778839 -0.15115356 0.5667877 -0.15115356c2.1539154 -0.15110779 2.1539154 -0.113357544 2.1539154 -2.229477c0 -30.910156 0 -61.782562 0 -92.69272c0 -2.4184341 0.34007263 -2.1539154 -2.078308 -2.1539154c-13.527908 0 -27.055862 0.03781128 -40.58377 0.03781128c-1.9649506 0 -1.9649506 0 -1.9272003 -2.0027542c0.03781128 -7.9731445 0.03781128 -15.946342 0.113357544 -23.881683c0 -1.1714401 -0.22671509 -1.9271965 -1.3225403 -2.6073456c-2.078308 -1.3225441 -2.7584534 -4.232216 -1.7759857 -6.726204c0.9068756 -2.3805733 3.0607758 -3.6275673 5.743683 -3.3252983c2.4561768 0.26451874 4.156601 1.9271965 4.6479034 4.5722923c0.45343018 2.569538 -0.7557678 5.1013336 -3.0608368 6.083805c-0.94467163 0.3778801 -1.1336365 0.8691139 -1.1336365 1.8137856c0.03779602 7.104084 0.0756073 14.208115 0 21.274391c0 1.3981552 0.3778839 1.7004242 1.7004852 1.6626205c13.9813385 -0.075553894 27.962723 -0.037750244 41.981873 -0.15110779c1.4737091 0 1.9649353 0.26446533 1.9649353 1.8893356c-0.075546265 32.00605 -0.037734985 64.049835 -0.037734985 96.05589c0 0.45343018 0.037734985 0.90686035 0 1.3603516c-0.03781128 0.7179413 0.22671509 0.98246765 0.98246765 0.98246765c1.2847443 0 2.5317383 -0.18896484 3.8165283 0.113357544c0 0.30226135 -0.03779602 0.604599 -0.03779602 0.90686035c-0.22671509 5.7059326 0.45343018 11.411865 0.34007263 17.117783c-0.037750244 1.4737091 -0.49124146 1.9649506 -1.9649506 1.9271393c-2.6828918 -0.0756073 -5.2902374 0 -7.897583 0z" fill-rule="evenodd"/>
    <path fill="#0aa6ed" d="m283.36826 197.10986c-1.4736938 0.03781128 -1.851593 -0.5667877 -1.8137817 -1.8893433c0.07562256 -2.7584991 0 -5.4792023 0 -8.237717c0 -2.3428192 0 -4.6856537 0 -7.028412c0 -2.871872 0 -2.9852295 2.8718567 -2.8341217c1.5492554 0.0756073 1.9271545 -0.34007263 1.9271545 -1.9271393c-0.03781128 -42.32202 -0.03781128 -84.64403 -0.03781128 -126.966034c0 -1.2847443 -0.15112305 -2.3805733 -0.9824829 -3.5520134c-1.927124 -2.6828995 -0.8690491 -6.7261505 1.851593 -8.124306c2.909668 -1.4737129 6.3861084 -0.3023262 7.5953064 2.6073456c1.3603516 3.2496872 -0.1133728 6.763954 -3.4387207 7.7464256c-1.1713562 0.34007263 -0.8690491 1.0580254 -0.8690491 1.7382317c0 42.208656 0 84.41731 -0.03781128 126.66371c0 1.3981628 0.37789917 1.9649506 1.7760315 1.7382355c1.0580444 -0.15116882 1.3981018 0.2645111 1.3603516 1.3603516c-0.07559204 2.8718567 -0.03781128 5.7059174 -0.03781128 8.577728c0 2.7963104 -0.075531006 5.592575 0 8.388824c0.03781128 1.3603516 -0.49121094 1.7760468 -1.7760315 1.7760468c-2.7962341 -0.113357544 -5.592499 -0.113357544 -8.388794 -0.03781128z" fill-rule="evenodd"/>
    <path fill="#0aa6ed" d="m202.15364 119.114426c-0.113357544 8.275467 -0.07556152 16.550934 -0.07556152 24.826416c0 10.58049 0 21.12323 -0.03779602 31.70372c0 1.0958252 0.22671509 1.5492554 1.4359589 1.4737091c1.6626282 -0.113357544 3.3630524 0.03779602 5.0634766 -0.03781128c1.0202789 -0.03779602 1.4737549 0.18896484 1.4359589 1.3225555c-0.07556152 2.8718567 -0.03781128 5.7059174 -0.03781128 8.577789c0 2.8340607 -0.037750244 5.7059326 0 8.539993c0 1.1713867 -0.4156189 1.6626129 -1.6248627 1.6248627c-2.9096222 -0.03779602 -5.81929 -0.03779602 -8.691101 0c-1.28479 0.037750244 -1.7004242 -0.4912262 -1.662674 -1.7382202c0.03779602 -2.7963104 0 -5.592575 0 -8.388824c0 -2.9096832 0 -5.81929 0.03779602 -8.728958c0 -0.37782288 -0.22671509 -1.0202332 0.22671509 -1.0958405c1.0958405 -0.2645111 0.79356384 -1.0580292 0.79356384 -1.7004242c0 -17.457794 0 -34.915665 0.037750244 -52.373466c0 -1.3226013 -0.2645111 -1.7004776 -1.6626129 -1.7004776c-17.42006 0.03780365 -34.840103 0.03780365 -52.22235 0c-0.98246765 0 -1.5114594 0.18896484 -1.889328 1.2092438c-0.9069214 2.4183807 -3.0608368 3.4764023 -5.81929 3.1363297c-2.2294617 -0.26451874 -3.9676971 -1.9271393 -4.4211884 -4.269966c-0.49118042 -2.6073456 0.56684875 -5.06353 2.6073456 -6.1971664c2.1161194 -1.1336365 4.987976 -0.83130646 6.4994965 0.9069214c0.71795654 0.8313141 1.4737091 1.0202255 2.493927 1.0202255c18.515884 -0.037750244 37.069565 0 55.58545 -0.075553894c1.3981018 0.113357544 1.9649353 0.3023224 1.9271393 1.9649429z" fill-rule="evenodd"/>
    <path fill="#0aa6ed" d="m405.9683 87.18385c-1.0580139 0.3023224 -1.0202026 0.9069214 -1.0202026 1.662674c0 15.114975 0 30.230003 0.037750244 45.34497c0 1.4359741 -0.4156494 1.7382355 -1.776001 1.7382355c-10.202667 -0.037750244 -20.405273 0 -30.64569 -0.075546265c-1.5492554 0 -1.8137817 0.45343018 -1.8137817 1.889389c0.03781128 12.167557 0.03781128 24.297302 0.03781128 36.464905c0 2.7207031 0 2.7207031 2.7584534 2.871872c0.15115356 0 0.30233765 0.075546265 0.45343018 0.113357544c0 0.68014526 -0.037750244 1.3225403 -0.037750244 2.0027466c0.1133728 5.40361 0.18890381 10.807205 0.3022766 16.173004c0.03781128 1.3226013 -0.4156189 1.8138428 -1.7759705 1.7760315c-2.9096985 -0.075546265 -5.8193054 -0.075546265 -8.728973 0c-1.284729 0.03781128 -1.5870667 -0.41567993 -1.5492554 -1.7004242c0.113342285 -6.0460052 0.075531006 -12.1298065 0.113342285 -18.175797c1.1336365 -0.3778839 2.3428345 -0.22673035 3.476471 -0.15116882c1.4359131 0.113357544 1.8894043 -0.3022766 1.8894043 -1.8137817c-0.07562256 -13.641266 -0.03781128 -27.244781 -0.07562256 -40.886047c0 -1.28479 0.37786865 -1.6248627 1.6248779 -1.5871277c9.938141 0.03781128 19.914032 0 29.852142 0.07562256c1.4359436 0 1.7760315 -0.4156952 1.7382202 -1.7760468c-0.03781128 -14.208107 -0.03781128 -28.37841 -0.03781128 -42.586517c0 -1.2847443 -0.15109253 -2.3805695 -0.94467163 -3.5520096c-1.851593 -2.7207031 -0.7935486 -6.7261505 1.9649658 -8.086502c2.8718567 -1.4359589 6.3105164 -0.22671509 7.481903 2.569542c1.4359436 3.1741333 -0.037750244 6.726143 -3.3253174 7.708618z" fill-rule="evenodd"/>
    <path fill="#0aa6ed" d="m329.18478 109.10276c-1.2469788 0.07561493 -1.0958252 0.71800995 -1.0958252 1.5115128c0 12.20536 0 24.41072 0 36.616074c0 9.446915 0 18.893753 -0.03781128 28.340668c0 1.0958252 0.22671509 1.5492554 1.4359131 1.5114594c1.2470093 -0.037750244 2.5317993 -0.18891907 3.8165894 0.113357544c0 0.604599 -0.03778076 1.2092438 -0.03778076 1.8515778c-0.22671509 5.139145 0.45343018 10.278229 0.34005737 15.417297c-0.07556152 2.6829681 0 2.6829681 -2.7585144 2.6829681c-2.2294617 0 -4.4966736 0 -6.726166 0c-2.7207031 0 -2.6828918 0 -2.7585144 -2.8340607c-0.113342285 -5.7059326 0.64242554 -11.374054 0.30233765 -17.079987c0.4156189 -0.03779602 0.79351807 -0.15115356 1.209198 -0.15115356c2.1539001 -0.037750244 2.1539001 -0.037750244 2.1539001 -2.229477c0 -21.501038 0 -43.002136 0 -64.50324c0 -1.3981018 -0.113342285 -2.6073456 -0.94470215 -3.8542786c-1.3981628 -2.1161118 -0.90689087 -5.214691 0.7935486 -6.952919c1.5492554 -1.549324 4.3833313 -1.9649506 6.423889 -0.94467163c2.078308 1.0958328 3.1363525 3.514206 2.6828918 6.159355c-0.45343018 2.5317383 -2.1539001 4.1566086 -4.799011 4.34552z" fill-rule="evenodd"/>
    <path fill="#0aa6ed" d="m521.32446 175.64653c-2.56958 -0.18890381 -4.383362 -1.6248627 -4.9124146 -4.2699738c-0.22668457 -1.2091827 -0.8312988 -1.246994 -1.77594 -1.246994c-19.498383 0 -38.996735 0 -58.495087 0c-0.49124146 0 -1.0202942 0.07556152 -1.5115051 0.113357544c0 1.8894043 0.075531006 3.7409973 0.03778076 5.6303864c-0.03778076 0.94467163 0.3022766 1.209198 1.209198 1.209198c1.5115051 0 3.0229797 -0.1889801 4.534485 0.113357544c0 0.68014526 0 1.3225403 -0.037750244 2.0026855c-0.22677612 5.101349 0.45343018 10.164886 0.3400879 15.26622c-0.07562256 2.6450958 0 2.682907 -2.7585144 2.682907c-2.2294617 0 -4.4967346 0 -6.7261353 0c-2.7585144 0 -2.7207031 0 -2.7585144 -2.834076c-0.1133728 -5.7059326 0.642395 -11.374054 0.3022461 -17.079987c1.5493469 0.03779602 1.9272156 -0.6801605 1.851593 -2.1916656c-0.15109253 -2.5317383 0 -5.0635376 0 -7.595276c-0.4156189 -1.5493317 0.566864 -1.4737091 1.6248779 -1.4737091c21.236603 0 42.473175 0 63.709747 0.037734985c1.0580444 0 1.927185 -0.18890381 2.8341064 -0.7935028c1.9649048 -1.28479 4.7234497 -0.98246765 6.423889 0.52905273c1.7003784 1.5492554 2.267212 4.383316 1.3225098 6.6506042c-0.8312988 2.1538544 -2.8718262 3.4386597 -5.2146606 3.2496796z" fill-rule="evenodd"/>
    <path fill="#0aa6ed" d="m453.58408 160.07812c-2.6451416 -0.075546265 -4.6101074 -1.6626129 -5.1391296 -4.383316c-0.18890381 -0.94473267 -0.5289917 -1.1336365 -1.3603516 -1.1336365c-10.467163 0.03779602 -20.934296 0.03779602 -31.401428 0c-1.0958252 0 -1.3603516 0.34007263 -1.3603516 1.3981476c0.03781128 5.9325867 0.03781128 11.827484 0.03781128 17.760117c0 3.2874908 0 3.3253021 3.3252869 3.3253021c1.1336365 0 1.3603516 0.4156189 1.3225403 1.4358978c-0.03781128 2.871872 0 5.7059174 0 8.577728c-0.03781128 -0.075546265 -0.113342285 -0.113357544 -0.18890381 -0.113357544c0.26446533 2.9474182 0.07556152 5.8948975 0.1133728 8.880066c0 0.8691101 -0.37789917 1.3226013 -1.2848206 1.3226013c-3.0985718 0 -6.2349243 0 -9.333496 0c-0.9824829 0 -1.3603516 -0.4534912 -1.3603516 -1.3981628c0.037750244 -2.7962494 0.037750244 -5.59256 0.07556152 -8.4266205c0 0 0 0 0 0c-0.03781128 -0.113357544 -0.03781128 -0.18891907 -0.07556152 -0.3022766c0 -2.7584991 0.07556152 -5.5169525 -0.03781128 -8.275452c-0.03781128 -1.3226013 0.30233765 -1.9272003 1.6626892 -1.6626892c1.3225403 0.22673035 1.5870667 -0.37786865 1.5870667 -1.6248016c-0.03781128 -7.2929993 -0.03781128 -14.585983 -0.03781128 -21.878967c0 -2.456192 -0.18890381 -2.078308 2.1539307 -2.078308c11.751862 0 23.466003 0 35.217957 0c0.8312988 0 1.4736938 -0.0756073 2.1161194 -0.8313751c1.5870667 -1.889328 4.572296 -2.305008 6.7261353 -1.1335754c2.191742 1.209198 3.2875671 4.0054474 2.5317993 6.650589c-0.642395 2.493927 -2.6451416 3.9299011 -5.2902527 3.8920898z" fill-rule="evenodd"/>
    <path fill="#0aa6ed" d="m324.4727 539.65186c3.0985718 -0.11340332 6.234894 -0.11340332 9.333466 0c1.6248779 0.07556152 1.9649658 0.4156494 2.002777 2.0405273c0.113342285 2.3428345 0.075531006 4.685669 0 7.0284424c0 0.6802368 -0.18899536 1.2848511 -0.68014526 1.8137817c0 2.3051147 -0.03781128 4.6101074 -0.03781128 6.8773804c0 3.0230103 0 3.0985718 -3.060791 2.9851685c-1.5115051 -0.07556152 -1.927185 0.34014893 -1.927185 1.927185c0.03781128 39.563538 0.03781128 79.089294 0.03781128 118.65283c0 2.2294922 0.26449585 2.4939575 2.569519 2.4939575c12.394318 0 24.788605 0 37.220673 0c0.83135986 0 1.5115051 -0.15112305 2.2294617 -0.71795654c1.7382202 -1.28479 3.703186 -1.3981323 5.6681213 -0.5289917c1.9649353 0.8690796 2.8340454 2.5317993 2.9852295 4.6101074c0.22671509 2.9473267 -1.2847595 4.79895 -3.7409973 6.0459595c-1.0202026 0 -2.0404968 0 -3.0607605 0c-1.776001 -0.79351807 -3.3630676 -1.8516235 -3.7409363 -3.8921509c-0.22671509 -1.1713867 -0.7557373 -1.3980713 -1.8138428 -1.3980713c-11.751862 0.037719727 -23.465973 -0.03778076 -35.217896 0.07556152c-2.3806458 0.037719727 -4.156616 -0.5668335 -5.857086 -2.1539307c-0.94467163 -0.90686035 -1.3981018 -1.776001 -1.3981018 -3.0985718c0.03781128 -40.05475 0.03781128 -80.1095 0.03781128 -120.20209c0 -1.2470093 -0.1133728 -2.1160889 -1.6626892 -1.8138428c-1.058075 0.18896484 -1.2469788 -0.37786865 -1.2469788 -1.3225098c0.03778076 -2.8718262 0 -5.7058716 0 -8.577759c-0.4156494 -0.49121094 -0.642395 -1.0202637 -0.68014526 -1.6626587c-0.07562256 -2.4561768 -0.1133728 -4.9124146 0 -7.3307495c0.113342285 -1.4737549 0.49121094 -1.8138428 2.0404968 -1.8516235z" fill-rule="evenodd"/>
    <path fill="#0aa6ed" d="m413.198 670.69147c0.037750244 -36.162598 0.037750244 -72.32526 0.037750244 -108.487915c0 -0.52905273 -0.037750244 -1.0202637 0 -1.5493164c0.03781128 -0.71795654 -0.26452637 -0.9824829 -0.9824829 -0.9824829c-1.4358826 0.037841797 -2.8717957 -0.07556152 -4.2699585 0.037841797c-1.1336365 0.07556152 -1.5115051 -0.26452637 -1.4737244 -1.4359741c0 -2.8718262 0.18893433 -5.7058716 -0.113342285 -8.577759c0 -2.7207031 0.07556152 -5.4035645 0 -8.124268c-0.03781128 -1.4359741 0.4156189 -2.0405273 1.9271545 -2.0027466c2.7962341 0.07556152 5.630371 0.07556152 8.426636 0c1.3603516 -0.03778076 1.927124 0.45343018 1.8893127 1.8515625c-0.075531006 2.758484 0 5.516968 0 8.275452c-0.037750244 2.8718872 -0.037750244 5.7059326 -0.113342285 8.577759c0 0.4534912 0.22671509 1.133606 -0.26446533 1.2470703c-1.2470093 0.3022461 -0.86917114 1.2091675 -0.86917114 1.927124c0 35.935852 0 71.90961 0 107.84552c0 2.1160278 0.9069214 3.060791 3.0230408 3.060791c9.749176 0 19.498352 0 29.247559 0.037719727c0.94467163 0 1.4358826 -0.22668457 1.8893738 -1.0958252c1.1713867 -2.267212 3.7787476 -3.2496948 6.310486 -2.4939575c2.4184265 0.7180176 3.8165894 2.8340454 3.7409668 5.668152c-0.075531006 2.6073608 -1.7004089 4.647827 -4.005432 5.139099c-2.7207031 0.56677246 -5.13916 -0.45343018 -6.1216125 -2.8340454c-0.45343018 -1.0958252 -1.0580444 -1.2848511 -2.0404968 -1.2848511c-9.333557 0.037841797 -18.704865 -0.07550049 -28.038391 0.07562256c-2.569519 0.03778076 -4.7234497 -0.4156494 -6.7639465 -2.1160889c-0.9824829 -0.7935791 -1.4359131 -1.5115356 -1.4359131 -2.758484z" fill-rule="evenodd"/>
    <path fill="#0aa6ed" d="m373.22284 539.5687c1.3226013 -0.037841797 1.8138428 0.49121094 1.7760315 1.8137817c-0.03778076 2.7963257 0.03781128 5.630371 0.03781128 8.426636c0 2.909607 -0.03781128 5.819275 0 8.728882c0 0.8312988 -0.22671509 1.3225708 -1.0958252 1.133667c-1.7760315 -0.3400879 -1.9272156 0.6045532 -1.9272156 2.078308c0.03781128 29.77655 0.03781128 59.5531 0 89.32965c0 1.2470093 0.03781128 2.078308 1.5870972 2.3428345c1.1714172 0.18890381 2.0405579 1.133667 2.6073303 2.1916504c1.3981628 2.4940186 0.83132935 5.8571167 -1.284729 7.5197144c-1.8894043 1.5115356 -4.9880066 1.4359741 -6.839569 -0.113342285c-2.078308 -1.776001 -2.6073608 -5.139099 -1.0202942 -7.5197144c0.642395 -0.9824829 0.83135986 -1.8894043 0.83135986 -2.9852295c0 -29.663147 0 -59.326416 -0.03778076 -88.989624c0 -1.2091064 0.5290222 -2.720642 -0.26452637 -3.552002c-0.7557678 -0.75567627 -2.2294922 -0.2267456 -3.400879 -0.2267456c-0.9069214 0 -1.2469788 -0.26446533 -1.2092285 -1.2091675c0.03781128 -2.909607 0 -5.819275 -0.037750244 -8.728882c0 -2.758545 0.07556152 -5.516968 0 -8.275513c-0.03781128 -1.3603516 0.34005737 -1.9649048 1.8137817 -1.927185c2.8718567 0.037841797 5.6681213 0.037841797 8.464386 -0.037719727z" fill-rule="evenodd"/>
    <path fill="#0aa6ed" d="m460.73712 612.3098c-2.3805847 0.03778076 -4.1944275 -0.52905273 -5.894867 -2.1538696c-0.8691101 -0.83135986 -1.2091675 -1.5870972 -1.2091675 -2.7207031c0.03778076 -12.318726 0.03778076 -24.599731 0.03778076 -36.918457c0 -3.0985718 -0.07559204 -6.2349243 0.037750244 -9.333496c0.03781128 -1.28479 -0.4156189 -1.5870361 -1.5870667 -1.5115356c-0.8691101 0.07556152 -1.7382202 -0.03778076 -2.6073303 0.037841797c-1.0580444 0.07556152 -1.3981628 -0.26452637 -1.3981628 -1.3603516c0.07562256 -2.8718872 0 -5.7059326 0 -8.57782c0 -2.8717651 0.07562256 -5.7059326 0.03781128 -8.577698c0 -1.2092285 0.45343018 -1.6248779 1.6248779 -1.6248779c2.8718567 0.03778076 5.7059326 0.07556152 8.577789 0c1.3225403 -0.037841797 1.8137817 0.4534912 1.7759705 1.776001c-0.03781128 2.7962646 0 5.63031 0.03781128 8.426575c0 2.909668 -0.03781128 5.819275 0 8.729004c0 0.79345703 -0.15115356 1.3225098 -1.0958252 1.1713257c-1.0958252 -0.15112305 -1.3603516 0.3779297 -1.3603516 1.3981934c0.037750244 15.152771 0 30.343384 0.037750244 45.496155c0 1.7382202 0.8691101 2.6073608 2.6073303 2.6073608c12.46991 0 24.901978 0 37.371857 0.03778076c0.94473267 0 1.5493164 -0.22668457 2.078308 -1.0958862c1.3226013 -2.078308 4.118866 -2.7584229 6.5372314 -1.8137817c2.2294922 0.8691406 3.5520935 3.2874756 3.2497559 5.8571167c-0.34005737 2.7207031 -2.1161194 4.6100464 -4.6856384 4.9123535c-2.6073608 0.3022461 -4.987915 -0.9447632 -5.7059326 -3.3630981c-0.4156189 -1.284729 -1.0958252 -1.4359131 -2.191681 -1.4359131c-12.054199 0 -24.18399 -0.07556152 -36.276 0.03778076z" fill-rule="evenodd"/>
    <path fill="#0aa6ed" d="m241.03906 539.56885c2.7963257 0.07556152 5.6303406 0.07556152 8.426666 0c1.3225098 -0.037841797 1.8137512 0.45343018 1.7759552 1.776062c-0.03779602 2.7962036 0 5.630188 0.03779602 8.426514c0 2.909607 -0.03779602 5.819214 0 8.691162c0 0.9446411 -0.30226135 1.2092285 -1.209137 1.2092285l-4.032028 0.01574707l0.38615417 0.09655762c0.24723816 0.30230713 0.3214569 0.81243896 0.3214569 1.5870972c-0.032958984 29.81427 -0.032958984 59.628784 -0.032958984 89.443054c0 2.078308 0.2966919 1.927124 -1.747406 1.927124c-14.374374 0 -28.78183 0 -43.15622 0c-0.6264496 0 -1.2528076 -0.15118408 -1.8462982 0.22668457c-0.42855835 2.1539917 -1.7144318 3.552124 -3.49469 3.892212c-2.6045227 0.49121094 -4.714554 -0.94470215 -5.439804 -3.6654053c-0.7253418 -2.7962646 0.29670715 -5.819214 2.4066162 -6.915222c2.3407898 -1.2091064 4.7805786 -0.34002686 6.231186 2.267334c13.912857 0 27.792755 0.03778076 41.705612 0.03778076c1.714447 0 1.714447 0 1.714447 -1.9649658c0 -28.302856 0 -56.56787 0 -84.87073l0.14666748 -2.050476l-2.798645 0.010986328c-0.94467163 0 -1.2092285 -0.34014893 -1.2092285 -1.2470093c0.037887573 -2.909607 0 -5.819336 -0.03779602 -8.691162c0 -2.7963257 0.075683594 -5.63031 0.03779602 -8.426514c-0.03779602 -1.3604736 0.491333 -1.776062 1.813858 -1.776062z" fill-rule="evenodd"/>
    <path fill="#0aa6ed" d="m282.41574 539.56885c2.7962341 0.075683594 5.630249 0.075683594 8.426575 0c1.360321 -0.037841797 1.927124 0.4534912 1.8893433 1.8516235c-0.07559204 2.758545 0 5.516968 0 8.275513c-0.03768921 2.8339844 -0.11340332 5.7059326 -0.03768921 8.539917c0.03768921 1.1714478 -0.3779602 1.4736938 -1.4738159 1.4359131l-4.1132812 0l0.5413208 0.16418457c0.2361145 0.3071289 0.2833557 0.77941895 0.2833557 1.4217529c-0.03768921 26.904785 0 53.80945 -0.03768921 80.71411c0 1.2470093 0.07546997 2.1160889 1.6247864 2.267273c0.9824524 0.07562256 1.7382507 0.79351807 2.3806763 1.5493164c1.851532 2.3049927 1.6248779 6.0081787 -0.49124146 7.9731445c-2.040619 1.8894043 -5.5926514 1.776062 -7.5197754 -0.18902588c-2.0782166 -2.078308 -2.1916199 -5.932556 -0.03781128 -8.048706c0.75579834 -0.79345703 0.9069824 -1.5491943 0.9069824 -2.569519c0 -13.565674 0 -27.169128 0 -40.734924c0 -13.716858 0 -27.471497 0 -41.188354c0 -0.5479126 0.03781128 -0.9446411 0.24084473 -1.2092285l0.44503784 -0.15002441l-3.4055786 0c-1.1336365 0.03778076 -1.4736938 -0.34002686 -1.4736938 -1.4736938c0 -2.8340454 0.18899536 -5.7059326 -0.07559204 -8.539978c0 -2.6829224 0.07559204 -5.3658447 0 -8.086487c-0.03768921 -1.4359131 0.4156494 -2.0406494 1.9272461 -2.0028076z" fill-rule="evenodd"/>
    <path fill="#0aa6ed" d="m203.4399 559.50354c0.519577 0.29748535 0.8690796 0.86431885 0.8690796 1.6012573c0 10.504883 0 21.047668 0 31.552551c0 10.429382 -0.03779602 20.820862 0.03779602 31.250244c0 1.5115356 -0.30226135 1.9649658 -1.8894501 1.9649658c-17.911179 -0.07562256 -35.822464 -0.03778076 -53.73375 -0.03778076c-0.98246765 0 -1.6248779 0.07556152 -2.0405273 1.2470093c-0.8690796 2.4939575 -3.249771 3.6276245 -6.083786 3.1741943c-2.3428802 -0.37799072 -4.0432434 -2.3428955 -4.2700195 -4.9502563c-0.22677612 -2.758545 1.1714478 -5.0635376 3.4764252 -5.8571167c2.4939728 -0.8312988 5.1769104 -0.037719727 6.4238434 2.1539307c0.529129 0.9069824 1.0959473 1.0958252 2.078308 1.0958252c17.042206 -0.03778076 34.08441 -0.03778076 51.164413 0c1.4737091 0 1.7381592 -0.45343018 1.7381592 -1.8137207c-0.03779602 -19.76294 -0.03779602 -39.525818 -0.03779602 -59.250916c0 -0.45336914 0 -0.9067993 0 -1.3603516c0 -0.3022461 0.03779602 -0.60461426 0.3779602 -0.75579834c0.6800995 -0.34002686 1.3697662 -0.31170654 1.8893433 -0.014038086zm-5.214691 -19.936707c3.0229797 0.03778076 6.0081787 0.03778076 9.031174 0c1.0202637 0 1.5115967 0.45343018 1.4738007 1.4736938c-0.03779602 2.8341064 -0.03779602 5.7059326 -0.07559204 8.540039c-0.3022461 0.642334 -0.22676086 1.284729 -0.22676086 1.9649658c0 2.1538086 -0.03779602 4.2698975 0 6.423828c0 1.0580444 -0.3778534 1.5114746 -1.4359131 1.4736938c-3.363037 -0.03778076 -6.7261963 -0.03778076 -10.089233 -0.07562256c-0.03779602 -6.0459595 -0.07559204 -12.129761 -0.15118408 -18.17572c0 -1.0580444 0.30226135 -1.6248779 1.4737091 -1.6248779z" fill-rule="evenodd"/>
    <path fill="#0aa6ed" d="m76.06764 319.69302c1.9271393 -4.6479187 6.537239 -5.403595 9.749176 -1.5871277c0.45343018 0.52905273 0.906868 0.5668335 1.4737091 0.5668335c15.757378 0 31.552559 0 47.309937 0c0.8691101 0 1.3981476 -0.18896484 1.246994 -1.1713562c-0.15110779 -1.0581055 0.3778839 -1.2470093 1.3225403 -1.2470093c2.871872 0.037750244 5.7059326 0 8.577805 0c0.37786865 -0.4534912 0.8691101 -0.6802063 1.4737091 -0.6802063c2.5317383 -0.07556152 5.1013336 -0.07556152 7.633072 0c1.2091827 0.03781128 1.7004242 0.7557678 1.7382202 1.8894043c0.0756073 3.1741333 0.113357544 6.3105164 0 9.48465c-0.075546265 1.5870667 -0.41567993 1.9271545 -2.078308 2.002777c-2.3428192 0.113342285 -4.6856384 0.075531006 -7.028473 0c-0.6802063 0 -1.28479 -0.22671509 -1.8138428 -0.6802063c-2.7962494 0 -5.63031 -0.03781128 -8.426575 0.03778076c-1.0202637 0.03781128 -1.5115051 -0.22671509 -1.3981476 -1.3603516c0.0756073 -0.9069214 -0.037750244 -1.851593 0.03779602 -2.7585144c0.07556152 -1.0202026 -0.22671509 -1.4358826 -1.3225403 -1.4358826c-15.568466 0.03778076 -31.136932 0.03778076 -46.70539 0c-0.86911774 0 -1.2091904 0.3022461 -1.5870743 1.0580139c-1.1336365 2.4562378 -3.5520096 3.5142822 -6.23497 2.9474182c-2.267212 -0.49118042 -3.325241 -2.153839 -4.1187973 -4.118805c0 -0.9069214 0 -1.851593 0 -2.7585144c0.03780365 -0.075531006 0.1511612 -0.113342285 0.1511612 -0.18890381z" fill-rule="evenodd"/>
    <path fill="#0aa6ed" d="m92.08354 495.93777c1.0957718 -0.45343018 1.2091293 -1.0958252 1.2091293 -2.078308c-0.037742615 -15.98407 0 -31.968231 -0.075553894 -47.95233c0 -1.6248779 0.49124146 -1.8893738 1.9649506 -1.8893738c13.187836 0.075531006 26.337914 0.03778076 39.525757 0.03778076c0.642395 0 1.3225403 0.1133728 1.9649353 -0.15115356c-0.075546265 -1.28479 -0.18890381 -2.6073303 0.07556152 -3.8921509c0.18896484 0 0.41567993 0.03781128 0.60458374 0.03781128c5.81929 -0.03781128 11.63858 -0.03781128 17.457855 -0.113342285c1.2847443 0 1.8894043 0.34005737 1.851593 1.7382202c-0.0756073 2.8718567 -0.0756073 5.7059326 0 8.577728c0.03781128 1.2470703 -0.4534912 1.7382507 -1.7004242 1.7005005c-2.7963104 -0.03781128 -5.630371 0 -8.426636 0c-2.1916504 0 -4.383316 -0.03781128 -6.5750427 -0.03781128c-3.4763947 0 -3.4763947 0 -3.2874908 -3.5142212c-0.60458374 -0.03781128 -1.2091827 -0.113342285 -1.8138428 -0.113342285c-12.205353 0 -24.41066 0.037750244 -36.616013 -0.03781128c-1.4359665 0 -1.8893967 0.3022766 -1.8893967 1.8137817c0.075553894 14.66156 0.037750244 29.32309 0 43.9469c0 1.0958252 0.26451874 1.7004089 1.246994 2.3050232c2.1160507 1.28479 2.871811 4.118866 2.0404968 6.6505737c-0.79356384 2.418457 -2.9096146 3.7409973 -5.5925674 3.5520325c-2.4183807 -0.15115356 -4.34552 -1.851593 -4.79895 -4.2321777c-0.5290451 -2.758484 0.52898407 -5.3658447 2.8340607 -6.3483276z" fill-rule="evenodd"/>
    <path fill="#0aa6ed" d="m135.16328 173.94296c-0.18891907 2.5695343 -1.6248779 4.383316 -4.2699738 4.912369c-1.209198 0.22671509 -1.246994 0.8312988 -1.246994 1.7759705c0 19.498367 0 38.99672 0 58.495087c0 0.4912262 0.075546265 1.0202637 0.113357544 1.5115051c1.889389 0 3.740982 -0.075546265 5.6303864 -0.03779602c0.9446564 0.03779602 1.2091827 -0.3022766 1.2091827 -1.209198c0 -1.5115051 -0.18896484 -3.0229645 0.113357544 -4.534485c0.68014526 0 1.3225555 0 2.0027008 0.037750244c5.1013336 0.22677612 10.164871 -0.45343018 15.266205 -0.34007263c2.6450958 0.0756073 2.682907 0 2.682907 2.7584991c0 2.229477 0 4.49675 0 6.7261505c0 2.7585144 0 2.7207031 -2.8340607 2.7585144c-5.7059326 0.113357544 -11.374069 -0.642395 -17.080002 -0.30226135c0.03781128 -1.5493317 -0.68014526 -1.9272003 -2.1916656 -1.851593c-2.5317383 0.15110779 -5.0635376 0 -7.595276 0c-1.5493164 0.4156189 -1.4737091 -0.56684875 -1.4737091 -1.6248779c0 -21.236588 0 -42.473175 0.037750244 -63.709763c0 -1.0580292 -0.18891144 -1.9271545 -0.79351044 -2.8340607c-1.2847977 -1.9649506 -0.9824753 -4.723465 0.5290451 -6.423889c1.549263 -1.7004242 4.3833313 -2.267212 6.6506042 -1.3225403c2.1538544 0.8312988 3.4386597 2.8718567 3.2496948 5.214691z" fill-rule="evenodd"/>
    <path fill="#0aa6ed" d="m119.59487 243.96017c-0.075553894 2.6451416 -1.6626205 4.610092 -4.3833237 5.139145c-0.94472504 0.18890381 -1.1336365 0.52897644 -1.1336365 1.3603516c0.03781128 10.467148 0.03781128 20.93428 0 31.401413c0 1.0958252 0.34008026 1.3603516 1.3981628 1.3603516c5.932579 -0.03781128 11.827469 -0.03781128 17.760117 -0.03781128c3.2874756 0 3.3252869 0 3.3252869 -3.3252869c0 -1.1336365 0.41563416 -1.3603516 1.4358978 -1.3225403c2.871872 0.03781128 5.7059326 0 8.577744 0c-0.07556152 0.03781128 -0.113357544 0.113342285 -0.113357544 0.18890381c2.9474182 -0.26446533 5.894882 -0.07556152 8.880051 -0.1133728c0.8691101 0 1.3226013 0.37789917 1.3226013 1.2848206c0 3.0985718 0 6.2349243 0 9.333496c0 0.9824829 -0.4534912 1.3603516 -1.3981476 1.3603516c-2.7962646 -0.037750244 -5.592575 -0.037750244 -8.426636 -0.07556152c0 0 0 0 0 0c-0.113357544 0.03781128 -0.18890381 0.03781128 -0.30226135 0.07556152c-2.7585144 0 -5.5169525 -0.07556152 -8.275467 0.03781128c-1.3226013 0.03781128 -1.9272003 -0.30233765 -1.662674 -1.6626892c0.22671509 -1.3225403 -0.3778839 -1.5870667 -1.6248169 -1.5870667c-7.2929916 0.03781128 -14.585976 0.03781128 -21.878967 0.03781128c-2.4561844 0 -2.0783005 0.18890381 -2.0783005 -2.1539307c0 -11.751862 0 -23.466003 0 -35.217957c0 -0.8312988 -0.07561493 -1.4737091 -0.8313675 -2.1161041c-1.8893356 -1.5870667 -2.3050232 -4.572296 -1.1335831 -6.7261505c1.2091904 -2.1917267 4.0054474 -3.2875671 6.6505966 -2.5317993c2.493927 0.642395 3.9298859 2.6451569 3.8920822 5.2902527z" fill-rule="evenodd"/>
    <path fill="#0aa6ed" d="m76.06764 403.31424c1.9271393 -4.6479187 6.537239 -5.4036255 9.749176 -1.5871277c0.45343018 0.5290222 0.906868 0.5668335 1.4737091 0.5668335c15.757378 0 31.552559 0 47.309937 0c0.8691101 0 1.3981476 -0.18896484 1.246994 -1.1713867c-0.15110779 -1.058075 0.3778839 -1.2469788 1.3225403 -1.2469788c2.871872 0.037750244 5.7059326 0 8.577805 0c0.37786865 -0.4534912 0.8691101 -0.6802063 1.4737091 -0.6802063c2.5317383 -0.07556152 5.1013336 -0.07556152 7.633072 0c1.2091827 0.03781128 1.7004242 0.7557373 1.7382202 1.8893738c0.0756073 3.1741638 0.113357544 6.310547 0 9.48468c-0.075546265 1.5870667 -0.41567993 1.9271545 -2.078308 2.0027466c-2.3428192 0.1133728 -4.6856384 0.07556152 -7.028473 0c-0.6802063 0 -1.28479 -0.22671509 -1.8138428 -0.6802063c-2.7962494 0 -5.63031 -0.03778076 -8.426575 0.03781128c-1.0202637 0.03781128 -1.5115051 -0.22671509 -1.3981476 -1.3603516c0.0756073 -0.9069214 -0.037750244 -1.851593 0.03779602 -2.7585144c0.07556152 -1.0202026 -0.22671509 -1.4359131 -1.3225403 -1.4359131c-15.568466 0.03781128 -31.136932 0.03781128 -46.70539 0c-0.86911774 0 -1.2091904 0.3022766 -1.5870743 1.0580444c-1.1336365 2.4562378 -3.5520096 3.5142517 -6.23497 2.9474182c-2.267212 -0.49118042 -3.325241 -2.1538696 -4.1187973 -4.118805c0 -0.9069214 0 -1.851593 0 -2.7585144c0.03780365 -0.07556152 0.1511612 -0.1133728 0.1511612 -0.18890381z" fill-rule="evenodd"/>
    <path fill="#0aa6ed" d="m68.61945 365.6919c0.0756073 1.2470093 0.71800995 1.0958252 1.5115128 1.0958252c12.20536 0 24.41072 0 36.616074 0c9.446907 0 18.89376 0 28.340668 0.03781128c1.0958252 0 1.5492554 -0.22671509 1.5114594 -1.4359131c-0.037750244 -1.2469788 -0.18891907 -2.5317993 0.113357544 -3.8165894c0.604599 0 1.2092438 0.03781128 1.8515778 0.03781128c5.139145 0.22671509 10.278229 -0.45343018 15.417297 -0.3400879c2.6829681 0.07556152 2.6829681 0 2.6829681 2.7585144c0 2.2294922 0 4.496704 0 6.726166c0 2.7207031 0 2.6828918 -2.8340607 2.7585144c-5.7059326 0.1133728 -11.374054 -0.642395 -17.079987 -0.30233765c-0.03779602 -0.4156189 -0.15115356 -0.79348755 -0.15115356 -1.2091675c-0.037750244 -2.1539307 -0.037750244 -2.1539307 -2.229477 -2.1539307c-21.501038 0 -43.002136 0 -64.50324 0c-1.3981018 0 -2.6073456 0.1133728 -3.8542786 0.94473267c-2.1161118 1.3981628 -5.214691 0.90686035 -6.952923 -0.7935791c-1.5493202 -1.5492554 -1.9649467 -4.3833313 -0.9446678 -6.423889c1.0958328 -2.078308 3.5142097 -3.136322 6.159355 -2.6828918c2.5317383 0.45343018 4.1566086 2.1539307 4.34552 4.799011z" fill-rule="evenodd"/>
    <path fill="#0aa6ed" d="m135.16328 557.1318c-0.18891907 -2.569519 -1.6248779 -4.383301 -4.2699738 -4.9123535c-1.209198 -0.22668457 -1.246994 -0.8312988 -1.246994 -1.776001c0 -19.498352 0 -38.996704 0 -58.495056c0 -0.49124146 0.075546265 -1.0202637 0.113357544 -1.5115051c1.889389 0 3.740982 0.07556152 5.6303864 0.03781128c0.9446564 -0.03781128 1.2091827 0.3022461 1.2091827 1.2091675c0 1.5115356 -0.18896484 3.0229797 0.113357544 4.534485c0.68014526 0 1.3225555 0 2.0027008 -0.037719727c5.1013336 -0.22677612 10.164871 0.45343018 15.266205 0.34005737c2.6450958 -0.07562256 2.682907 0 2.682907 -2.7585144c0 -2.2294617 0 -4.4967346 0 -6.7261353c0 -2.7585144 0 -2.7207031 -2.8340607 -2.7585144c-5.7059326 -0.1133728 -11.374069 0.642395 -17.080002 0.3022766c0.03781128 1.5493164 -0.68014526 1.927185 -2.1916656 1.851593c-2.5317383 -0.15112305 -5.0635376 0 -7.595276 0c-1.5493164 -0.4156494 -1.4737091 0.5668335 -1.4737091 1.6248474c0 21.236603 0 42.473206 0.037750244 63.709778c0 1.0580444 -0.18891144 1.927124 -0.79351044 2.8340454c-1.2847977 1.9649658 -0.9824753 4.7234497 0.5290451 6.423889c1.549263 1.7004395 4.3833313 2.267212 6.6506042 1.3225708c2.1538544 -0.8312988 3.4386597 -2.8718872 3.2496948 -5.2147217z" fill-rule="evenodd"/>
    <path fill="#0aa6ed" d="m522.1531 326.84085c0.07556152 1.3225403 -0.49121094 1.4737244 -1.5870361 1.4737244c-2.8718872 0 -5.7059326 -0.18890381 -8.57782 0.113342285c-2.7584534 0 -5.4792175 -0.075531006 -8.237671 -0.037750244c-1.1714478 0 -1.6248779 -0.4534912 -1.6248779 -1.6249084c0.03781128 -2.9851685 0.03781128 -6.008209 0 -8.993439c-0.03781128 -1.209198 0.45343018 -1.6248169 1.6248779 -1.6248169c2.7584534 0.037750244 5.4792175 0 8.237671 -0.03781128c2.5317993 0.03781128 5.1013184 0.07556152 7.6330566 0.1133728c2.4561768 0 2.5317993 0 2.418457 2.4183655c-0.07562256 1.4359741 0.26446533 1.8894043 1.8137817 1.8894043c31.703735 -0.03781128 63.40747 -0.03781128 95.148926 0c1.3603516 0 1.776062 -0.3022766 1.776062 -1.7382202c-0.037841797 -17.911255 -0.037841797 -35.86035 0 -53.771637c0 -0.9824829 -0.18890381 -1.6626282 -1.0203247 -2.3428345c-1.8515625 -1.5115051 -2.3427734 -4.421112 -1.284729 -6.7639465c0.94470215 -2.078308 2.9474487 -3.2497406 5.328064 -3.0607758c2.4561768 0.18890381 4.1187744 1.6248627 4.7612305 4.0810394c0.642395 2.4562073 -0.26452637 5.1769104 -2.3428345 6.2727356c-1.133667 0.60458374 -1.28479 1.3225403 -1.28479 2.4183655c0.03778076 19.044952 0 38.089874 0.03778076 57.134735c0 1.5870667 -0.41571045 1.9271545 -1.9649658 1.9271545c-32.875122 -0.037750244 -65.788086 -0.037750244 -98.66321 -0.037750244c-2.1916504 0.037750244 -2.3049927 0.037750244 -2.1916504 2.1916504z" fill-rule="evenodd"/>
    <path fill="#0aa6ed" d="m583.4444 449.9888c0 -13.905853 0 -27.773834 0 -41.679688c0 -0.8691101 -0.07562256 -1.7759705 0.4156494 -2.6450806c-0.3400879 -0.03781128 -0.49127197 -0.1133728 -0.642395 -0.1133728c-19.951782 0 -39.941406 0 -59.89319 -0.03781128c-1.0581055 0 -1.28479 0.4156189 -1.2470093 1.3225403c0.07556152 1.1336365 -0.03778076 2.2673035 0.037841797 3.3631287c0.07550049 0.94473267 -0.2267456 1.2469788 -1.2092285 1.2091675c-2.9474487 -0.037719727 -5.932617 0 -8.880066 0.03781128c-2.758484 0 -5.5169983 -0.075531006 -8.275452 -0.03781128c-1.1714478 0 -1.6626892 -0.4156189 -1.6248779 -1.6248474c0.03781128 -2.9096375 0.07556152 -5.8192444 0 -8.728912c-0.03781128 -1.3225403 0.566803 -1.6626282 1.7760315 -1.6626282c2.7962646 0.037750244 5.6303406 0 8.426605 0c2.8718262 0 5.7059326 0 8.577759 -0.03781128c0.90686035 0 1.3981323 0.22671509 1.2092285 1.1713867c-0.3400879 1.6626892 0.49121094 1.8894043 1.927124 1.8894043c19.87622 -0.03781128 39.71466 -0.03781128 59.59088 -0.03781128c2.56958 0 3.9677124 1.3981628 3.9677124 3.9677124c0 14.094757 0 28.189514 0 42.28424c0 1.0202637 0.07556152 1.70047 1.3225708 1.8515625c1.2091675 0.15118408 2.1160889 0.9824829 2.7962646 2.002777c1.5870972 2.3806152 1.2469482 5.7437134 -0.79351807 7.5575256c-1.8516235 1.6626587 -5.1013184 1.7760315 -7.104126 0.18890381c-2.1160278 -1.7004395 -2.6828613 -5.0634766 -1.1713867 -7.5196533c0.64245605 -0.7935791 0.7935791 -1.7005005 0.7935791 -2.7207336z" fill-rule="evenodd"/>
    <path fill="#0aa6ed" d="m592.5887 285.88324c-2.4562378 0.68014526 -5.025818 -0.15115356 -6.121643 -2.267273c-0.6045532 -1.0958252 -1.284729 -1.284729 -2.3806152 -1.284729c-20.027344 0.037750244 -40.016968 0 -60.044373 0c-0.34002686 0 -0.71795654 0.037750244 -1.0579834 0c-0.642395 -0.03781128 -0.9447632 0.22671509 -0.9069214 0.90686035c0.03778076 0.3401184 0 0.7180176 0 1.058075c0 3.5142212 0 3.5142212 -3.5898438 3.5142212c-2.1538696 0 -4.2699585 0.03778076 -6.423889 0.03778076c-2.7584534 -0.03778076 -5.5169373 -0.075531006 -8.237671 -0.03778076c-1.284729 0.03778076 -1.7004089 -0.49124146 -1.7004089 -1.7004395c0.03781128 -2.8340454 0.07556152 -5.7059326 0 -8.539978c-0.03781128 -1.3981018 0.56677246 -1.7381897 1.8137817 -1.7381897c2.6828918 0.037750244 5.403595 -0.03778076 8.086578 -0.03778076c2.9473877 0 5.932617 0.03778076 8.880066 0.03778076c0.5289917 0 1.284729 -0.18896484 1.1335449 0.7557068c-0.26446533 1.5870667 0.642395 1.6626892 1.8516846 1.6626892c20.102905 -0.03781128 40.243652 -0.03781128 60.34662 0c1.133606 0 1.8137817 -0.26452637 2.4561768 -1.2848206c1.2470093 -1.927124 3.854309 -2.569519 6.159363 -1.7759705c2.2294312 0.7557678 3.6654053 2.9474182 3.552063 5.516968c-0.07562256 2.5317383 -1.6248779 4.572296 -3.8165283 5.17688z" fill-rule="evenodd"/>
    <path fill="#0aa6ed" d="m582.7204 241.21848c-1.927124 4.6479034 -6.5372314 5.40361 -9.749207 1.5871277c-0.45343018 -0.52905273 -0.90686035 -0.56684875 -1.4736938 -0.56684875c-15.757385 0 -31.552551 0 -47.309937 0c-0.8690796 0 -1.3981323 0.18896484 -1.2470093 1.1713867c0.15112305 1.058075 -0.37786865 1.246994 -1.3225098 1.246994c-2.8718872 -0.037750244 -5.7059326 0 -8.57782 0c-0.37786865 0.4534912 -0.8690796 0.6802063 -1.4736938 0.6802063c-2.5317383 0.075546265 -5.101349 0.075546265 -7.633087 0c-1.2091675 -0.03781128 -1.7004089 -0.7557678 -1.7382202 -1.8894043c-0.07559204 -3.1741333 -0.113342285 -6.3105316 0 -9.484665c0.07556152 -1.5870667 0.41567993 -1.9271393 2.078308 -2.0027466c2.3428345 -0.113357544 4.6856384 -0.07556152 7.028473 0c0.6802063 0 1.28479 0.22671509 1.8138428 0.6802063c2.7962646 0 5.63031 0.03779602 8.426575 -0.03781128c1.0202637 -0.03781128 1.5115356 0.22671509 1.3981323 1.3603516c-0.07556152 0.9069214 0.03778076 1.851593 -0.03778076 2.7585144c-0.07556152 1.0202179 0.2267456 1.4358978 1.3225708 1.4358978c15.56842 -0.03779602 31.136902 -0.03779602 46.705383 0c0.8690796 0 1.2091675 -0.30226135 1.5870361 -1.0580139c1.133667 -2.456253 3.552063 -3.5142822 6.2349854 -2.9474335c2.267212 0.49118042 3.3252563 2.1538696 4.1188354 4.11882c0 0.9069214 0 1.8515778 0 2.7584991c-0.037841797 0.07556152 -0.15118408 0.113357544 -0.15118408 0.18891907z" fill-rule="evenodd"/>
    <path fill="#0aa6ed" d="m523.62476 556.7071c0.18890381 -2.569519 1.6248779 -4.383301 4.2699585 -4.9123535c1.2092285 -0.22668457 1.2470093 -0.8312988 1.2470093 -1.77594c0 -19.498352 0 -38.996735 0 -58.495087c0 -0.49124146 -0.07556152 -1.0202942 -0.113342285 -1.5115356c-1.8894043 0 -3.7410278 0.07556152 -5.630432 0.03781128c-0.9446411 -0.03781128 -1.2091675 0.3022766 -1.2091675 1.209198c0 1.5115051 0.18896484 3.0229492 -0.113342285 4.534485c-0.6801758 0 -1.3225708 0 -2.0026855 -0.037750244c-5.1013794 -0.22677612 -10.164886 0.45343018 -15.266235 0.34005737c-2.645111 -0.07559204 -2.6828918 0 -2.6828918 -2.758484c0 -2.2294922 0 -4.496765 0 -6.726166c0 -2.7585144 0 -2.7207031 2.8340454 -2.7585144c5.7059326 -0.113342285 11.374054 0.642395 17.079987 0.3022766c-0.03778076 1.5493164 0.6801758 1.927185 2.1917114 1.851593c2.5317383 -0.15112305 5.0635376 0 7.595276 0c1.5493164 -0.4156189 1.4736938 0.5668335 1.4736938 1.6248779c0 21.236572 0 42.473175 -0.03778076 63.709747c0 1.0580444 0.18896484 1.927185 0.79351807 2.8341064c1.28479 1.9649048 0.9824829 4.7234497 -0.52905273 6.423828c-1.5492554 1.7004395 -4.383301 2.267212 -6.6505737 1.3225708c-2.1538696 -0.8312988 -3.4386597 -2.8718872 -3.2496948 -5.2147217z" fill-rule="evenodd"/>
    <path fill="#0aa6ed" d="m539.1932 489.4686c0.07556152 -2.6451416 1.6625977 -4.6101074 4.383301 -5.1391296c0.94470215 -0.18893433 1.133667 -0.5289917 1.133667 -1.3603516c-0.037841797 -10.467163 -0.037841797 -20.934296 0 -31.401428c0 -1.0958557 -0.3400879 -1.3603516 -1.3981934 -1.3603516c-5.932556 0.03778076 -11.827454 0.03778076 -17.760132 0.03778076c-3.2874756 0 -3.3252563 0 -3.3252563 3.3253174c0 1.1336365 -0.4156494 1.3603516 -1.4359131 1.3225403c-2.8718872 -0.03781128 -5.7059326 0 -8.577759 0c0.07556152 -0.03781128 0.11340332 -0.113342285 0.11340332 -0.18890381c-2.9474487 0.26446533 -5.8948975 0.07556152 -8.880066 0.113342285c-0.8691101 0 -1.3226013 -0.37786865 -1.3226013 -1.28479c0 -3.0985718 0 -6.2349243 0 -9.333496c0 -0.9824829 0.4534912 -1.3603516 1.3981323 -1.3603516c2.7962646 0.037750244 5.5925903 0.037750244 8.426636 0.075531006c0 0 0 0 0 0c0.1133728 -0.03778076 0.18893433 -0.03778076 0.3022766 -0.075531006c2.758484 0 5.516968 0.075531006 8.275452 -0.03781128c1.3226318 -0.03781128 1.927185 0.30230713 1.6626587 1.6626892c-0.22668457 1.3225403 0.3779297 1.5870667 1.6248169 1.5870667c7.29303 -0.03781128 14.585999 -0.03781128 21.878967 -0.03781128c2.4561768 0 2.078308 -0.18890381 2.078308 2.1539001c0 11.751892 0 23.466034 0 35.217987c0 0.8312988 0.07562256 1.4736938 0.83135986 2.1160889c1.8893433 1.5870667 2.3050537 4.572296 1.133606 6.726166c-1.2091675 2.1917114 -4.005432 3.2875671 -6.6505737 2.5317993c-2.4939575 -0.642395 -3.9299316 -2.6451416 -3.8920898 -5.2902527z" fill-rule="evenodd"/>
    <path fill="#0aa6ed" d="m582.7204 368.28934c-1.927124 4.6479187 -6.5372314 5.403595 -9.749207 1.5871277c-0.45343018 -0.52905273 -0.90686035 -0.5668335 -1.4736938 -0.5668335c-15.757385 0 -31.552551 0 -47.309937 0c-0.8690796 0 -1.3981323 0.18896484 -1.2470093 1.1713562c0.15112305 1.0581055 -0.37786865 1.2470093 -1.3225098 1.2470093c-2.8718872 -0.037750244 -5.7059326 0 -8.57782 0c-0.37786865 0.4534912 -0.8690796 0.6802063 -1.4736938 0.6802063c-2.5317383 0.07556152 -5.101349 0.07556152 -7.633087 0c-1.2091675 -0.03781128 -1.7004089 -0.7557678 -1.7382202 -1.8894043c-0.07559204 -3.1741333 -0.113342285 -6.3105164 0 -9.48465c0.07556152 -1.5870667 0.41567993 -1.9271545 2.078308 -2.002777c2.3428345 -0.113342285 4.6856384 -0.075531006 7.028473 0c0.6802063 0 1.28479 0.2267456 1.8138428 0.6802063c2.7962646 0 5.63031 0.03781128 8.426575 -0.03778076c1.0202637 -0.03781128 1.5115356 0.22671509 1.3981323 1.3603516c-0.07556152 0.9069214 0.03778076 1.851593 -0.03778076 2.7585144c-0.07556152 1.0202026 0.2267456 1.4358826 1.3225708 1.4358826c15.56842 -0.03778076 31.136902 -0.03778076 46.705383 0c0.8690796 0 1.2091675 -0.3022461 1.5870361 -1.0580139c1.133667 -2.4562378 3.552063 -3.5142822 6.2349854 -2.9474182c2.267212 0.49118042 3.3252563 2.153839 4.1188354 4.118805c0 0.9069214 0 1.851593 0 2.7585144c-0.037841797 0.07556152 -0.15118408 0.113342285 -0.15118408 0.18890381z" fill-rule="evenodd"/>
  </g>
</svg>