<?xml version="1.0" encoding="utf-8"?>
<svg viewBox="510.689 363.389 256.077 256.924" xmlns="http://www.w3.org/2000/svg">
  <path fill="#d1fefe" d="m638.41064 363.38898l11.932129 0l12.388611 131.884l4.2174683 4.4285583c15.126587 3.3013916 17.057007 6.6028748 24.062805 15.442627c3.7304688 -1.3956909 7.8189697 -2.119812 12.093445 -2.119812c3.390625 0 6.6643066 0.45568848 9.703857 1.4453735c4.050476 -12.597015 16.88617 -21.730316 32.067505 -21.730316c8.438171 0 16.151367 2.8216858 21.889954 7.6443176l0 119.929565l-256.07718 0l0 -68.68158c6.016449 -5.3745117 14.282684 -8.664185 23.393768 -8.664185c5.456482 0 10.6102295 1.1799927 15.104248 3.3909302c2.5627441 -9.991455 10.742432 -17.947937 21.340698 -21.179749c2.8302612 -14.256165 16.561035 -25.04834 33.06372 -25.04834l2.7839966 0.3637085l0.47302246 -0.7925415c3.2562256 -4.3828125 7.6416016 -8.015015 12.776367 -10.551514l7.2147217 -2.5812073z" fill-rule="evenodd" style=""/>
</svg>