<?xml version="1.0" encoding="utf-8"?>
<svg viewBox="510.69 365.264 257.794 255.049" xmlns="http://www.w3.org/2000/svg">
  <path fill="#1ffbfd" d="m633.7469 365.26382l21.990051 0l17.614014 85.994446l0.762146 2.2218933l1.493103 -0.12911987c9.066162 0 17.341614 2.9038696 23.54303 7.7809143c3.0142212 -0.8628845 6.232483 -1.2534485 9.557007 -1.2534485c6.4716187 0 12.540222 1.4796753 17.699707 4.1844177c4.5577393 -1.9440918 9.696533 -2.982544 15.118103 -2.982544c10.314636 0 19.605957 3.758789 25.942627 9.915863l1.0172119 149.31705l-257.7938 -0.4661255l0 -116.96045l1.0397949 0.100616455c3.8200378 -13.226807 17.779755 -22.980804 34.395782 -22.980804c0.94104004 0 1.8737793 0.031219482 2.7844238 0.24066162c-0.6067505 -2.0684814 -0.8828125 -4.2334595 -0.8828125 -6.453644c0 -16.87976 15.954346 -30.563599 35.634827 -30.563599c3.673645 0 7.217407 0.47677612 10.5512085 1.3629456l8.769714 -2.7407837c3.5532227 -4.7593994 8.338318 -8.703644 13.941467 -11.45813l3.7559204 -1.3372498z" fill-rule="evenodd" style=""/>
</svg>