<?xml version="1.0" encoding="utf-8"?>
<svg viewBox="461.213 203.882 356.957 444.96" xmlns="http://www.w3.org/2000/svg">
  <clipPath id="p7.0">
    <path d="m0 0l1280.0 0l0 720.0l-1280.0 0l0 -720.0z" clip-rule="nonzero"/>
  </clipPath>
  <g clip-path="url(#p7.0)" style="">
    <path fill="#5f6767" d="m805.9043 648.8419c0 0 7.1469116 -0.8987427 10.005737 -7.639221l0 0c0 -2.0222168 -1.4293213 -3.5949097 -3.267212 -3.5949097l-341.42404 1.3480835l-4.492401 0c-1.8377075 0 -3.4713135 1.3481445 -3.4713135 3.1455688l0 0c2.2460938 4.4936523 7.1469116 6.066345 9.3932495 6.515686l0.20410156 0.22479248c0 0 0 0 0 0l1.0210876 0" fill-rule="evenodd" style=""/>
    <path fill="#000000" d="m779.56226 624.1266c0 4.943054 -2.8588257 9.212158 -6.330139 9.212158l-266.8908 0c-3.471283 0 -6.3301086 -4.0443115 -6.3301086 -9.212158l0 -181.0946c0 -4.9430237 2.8588257 -9.211884 6.3301086 -9.211884l266.8908 0c3.4713135 0 6.330139 4.044281 6.330139 9.211884l0 181.0946z" fill-rule="evenodd" style=""/>
    <path fill="#f2f2f2" d="m512.05914 446.17776l255.04694 0l0 170.5344l-255.04694 0z" fill-rule="evenodd" style=""/>
    <path fill="#cccccc" d="m470.40198 628.171l338.76947 0c4.900879 0 8.984863 4.4936523 8.984863 9.886047l0 2.0220337c0 0 0.40838623 1.572876 -3.267212 1.1235352c-0.20428467 0 -0.40838623 0 -0.61273193 0l-348.36682 0c-0.6124878 0 -1.0209045 0 -1.633606 0.22454834c-1.0209045 0.22479248 -2.8588257 0.22479248 -3.0628967 -1.7974854l0 -1.7974243c0.20407104 -5.392395 4.084015 -9.661255 9.188934 -9.661255z" fill-rule="evenodd" style=""/>
    <path fill="#4d4d4d" d="m660.51324 634.27985l0.20410156 0l0.5466919 0.02130127l-0.0871582 0.013793945c-0.39562988 0.021057129 -0.66363525 -0.035095215 -0.66363525 -0.035095215zm-43.29065 -0.22460938c0.40838623 0.22460938 0.6124878 0.22460938 1.020874 0.22460938l-0.40838623 0c-0.20410156 0 -0.40838623 0 -0.6124878 -0.22460938zm47.17035 -5.841736l0.40844727 0c0.45947266 5.223816 -1.9526367 6.024231 -3.2735596 6.0979004l-0.26379395 -0.010253906l0.58447266 -0.09240723c1.220398 -0.3291626 2.7996826 -1.5578613 2.5444336 -5.770691zm-49.620728 0l0.40844727 0.22454834c0 0 -1.2252197 4.718445 2.246338 6.0665894c-3.880005 -1.1235352 -2.6547852 -6.2911377 -2.6547852 -6.2911377z" fill-rule="evenodd" style=""/>
    <path fill="#bfbfbf" d="m476.7687 635.0622l0 0c0 -0.61242676 0.49645996 -1.1088867 1.1088867 -1.1088867l10.639679 0c0.2940979 0 0.57614136 0.11682129 0.78408813 0.32476807c0.2079773 0.20800781 0.32479858 0.49005127 0.32479858 0.78411865l0 1.7208862c0 0.6123657 -0.49645996 1.1088257 -1.1088867 1.1088257l-10.639679 0c-0.61242676 0 -1.1088867 -0.49645996 -1.1088867 -1.1088257z" fill-rule="evenodd" style=""/>
    <path fill="#595959" d="m479.67178 635.4628l0 0c0 -0.29370117 0.23809814 -0.5317993 0.53182983 -0.5317993l5.98761 0c0.14105225 0 0.27633667 0.056030273 0.37606812 0.15576172c0.09976196 0.099731445 0.15579224 0.23498535 0.15579224 0.3760376l0 0.8253784c0 0.29370117 -0.23812866 0.53186035 -0.53186035 0.53186035l-5.98761 0c-0.2937317 0 -0.53182983 -0.23815918 -0.53182983 -0.53186035z" fill-rule="evenodd" style=""/>
    <path fill="#bfbfbf" d="m782.8374 635.0151l0 0c0 -0.6123657 0.49645996 -1.1088257 1.1088867 -1.1088257l25.302246 0c0.29412842 0 0.5761719 0.11682129 0.78411865 0.32476807c0.20794678 0.20794678 0.32476807 0.48999023 0.32476807 0.7840576l0 1.7208862c0 0.61242676 -0.49645996 1.1088867 -1.1088867 1.1088867l-25.302246 0c-0.61242676 0 -1.1088867 -0.49645996 -1.1088867 -1.1088867z" fill-rule="evenodd" style=""/>
    <path fill="#595959" d="m788.0767 635.4158l0 0c0 -0.2937622 0.23809814 -0.53186035 0.53186035 -0.53186035l15.977783 0c0.14105225 0 0.27630615 0.056030273 0.3760376 0.15576172c0.099731445 0.099731445 0.15576172 0.23504639 0.15576172 0.37609863l0 0.8253174c0 0.2937622 -0.23809814 0.53186035 -0.5317993 0.53186035l-15.977783 0l0 0c-0.2937622 0 -0.53186035 -0.23809814 -0.53186035 -0.53186035z" fill-rule="evenodd" style=""/>
    <path fill="#999999" fill-opacity="0.09803922" d="m703.48865 432.78717l64.33215 0.4892273c-0.11669922 61.286438 -0.23345947 123.84653 -0.3501587 185.13297l-169.83606 0" fill-rule="evenodd" style=""/>
    <path fill="#3f3f3f" fill-opacity="0.9882353" d="m511.74353 441.82877l256.07727 0l0 183.7537l-256.07727 0z" fill-rule="evenodd" style=""/>
    <path fill="#1ffbfd" d="m633.7469 365.26382l21.990051 0l17.614014 85.994446l0.762146 2.2218933l1.493103 -0.12911987c9.066162 0 17.341614 2.9038696 23.54303 7.7809143c3.0142212 -0.8628845 6.232483 -1.2534485 9.557007 -1.2534485c6.4716187 0 12.540222 1.4796753 17.699707 4.1844177c4.5577393 -1.9440918 9.696533 -2.982544 15.118103 -2.982544c10.314636 0 19.605957 3.758789 25.942627 9.915863l1.0172119 149.31705l-257.7938 -0.4661255l0 -116.96045l1.0397949 0.100616455c3.8200378 -13.226807 17.779755 -22.980804 34.395782 -22.980804c0.94104004 0 1.8737793 0.031219482 2.7844238 0.24066162c-0.6067505 -2.0684814 -0.8828125 -4.2334595 -0.8828125 -6.453644c0 -16.87976 15.954346 -30.563599 35.634827 -30.563599c3.673645 0 7.217407 0.47677612 10.5512085 1.3629456l8.769714 -2.7407837c3.5532227 -4.7593994 8.338318 -8.703644 13.941467 -11.45813l3.7559204 -1.3372498z" fill-rule="evenodd" style=""/>
    <path fill="#d1fefe" d="m638.41064 363.38898l11.932129 0l12.388611 131.884l4.2174683 4.4285583c15.126587 3.3013916 17.057007 6.6028748 24.062805 15.442627c3.7304688 -1.3956909 7.8189697 -2.119812 12.093445 -2.119812c3.390625 0 6.6643066 0.45568848 9.703857 1.4453735c4.050476 -12.597015 16.88617 -21.730316 32.067505 -21.730316c8.438171 0 16.151367 2.8216858 21.889954 7.6443176l0 119.929565l-256.07718 0l0 -68.68158c6.016449 -5.3745117 14.282684 -8.664185 23.393768 -8.664185c5.456482 0 10.6102295 1.1799927 15.104248 3.3909302c2.5627441 -9.991455 10.742432 -17.947937 21.340698 -21.179749c2.8302612 -14.256165 16.561035 -25.04834 33.06372 -25.04834l2.7839966 0.3637085l0.47302246 -0.7925415c3.2562256 -4.3828125 7.6416016 -8.015015 12.776367 -10.551514l7.2147217 -2.5812073z" fill-rule="evenodd" style=""/>
    <path fill="#125ac4" d="m646.7236 348.33478c5.3791504 1.9192505 10.3151245 6.2132263 14.272949 13.701996c1.2410278 2.615509 5.088196 11.187897 1.340332 15.664795c-4.3671875 -7.460022 -3.8259277 -8.533905 -8.867676 -9.914276c-0.30218506 4.0952454 -1.6230469 8.138672 -1.9139404 9.743286c-3.4696655 7.7141113 -2.6206055 7.237274 -9.887939 13.01535c0.070007324 -9.758972 -3.8809814 -11.848419 -7.5341187 -13.937866c-2.3949585 -0.9031677 -3.7697144 -3.2561646 -4.17688 -6.026184c-1.9995117 1.2953186 -4.0718994 1.745636 -6.0792847 3.0414734c0 -2.9533691 -2.9785156 -8.587433 0.670166 -14.742706c1.6738892 -2.618103 4.7382812 -6.4510803 8.364075 -9.005005l-1.4863281 2.006775c-1.9507446 3.2909546 -0.35827637 6.3032227 -0.35827637 7.882324c1.0732422 -0.6928406 2.1812744 -0.93362427 3.2503052 -1.6261292c0.2177124 1.4809875 0.9527588 2.7390442 2.2332764 3.2219238c1.953186 1.1171265 4.065613 2.2342834 4.0281982 7.4520264c3.885559 -3.089264 3.4315796 -2.834381 5.286682 -6.9588013c0.15551758 -0.8579712 0.86169434 -3.0197449 1.0233154 -5.2093506c2.6955566 0.7380371 2.406189 1.3121948 4.74115 5.3007507c2.0039062 -2.3936157 -0.053100586 -6.976898 -0.71655273 -8.375366c-1.22052 -2.309204 -2.6148682 -4.0502625 -4.189453 -5.235016zm-25.188416 -14.020203l40.408264 0l-9.412659 12.765869l-21.582947 0l-9.412659 -12.765869zm20.204102 -59.262848c2.524353 0 4.5707397 2.0463867 4.5707397 4.570709c0 2.524353 -2.0463867 4.570709 -4.5707397 4.570709c-2.524353 0 -4.5707397 -2.0463562 -4.5707397 -4.570709c0 -2.5243225 2.0463867 -4.570709 4.5707397 -4.570709zm0 -3.168396c-4.27417 0 -7.7391357 3.4649353 -7.7391357 7.739105c0 4.2742004 3.4649658 7.739105 7.7391357 7.739105c4.27417 0 7.7391357 -3.4649048 7.7391357 -7.739105c0 -4.27417 -3.4649658 -7.739105 -7.7391357 -7.739105zm0 -34.342026c5.048645 0 9.141418 4.092758 9.141418 9.141434c0 5.0486603 -4.0927734 9.141434 -9.141418 9.141434c-5.048645 0 -9.141418 -4.0927734 -9.141418 -9.141434c0 -5.0486755 4.0927734 -9.141434 9.141418 -9.141434zm0 -6.336792c-8.548401 0 -15.47821 6.92984 -15.47821 15.478226c0 8.54837 6.9298096 15.478241 15.47821 15.478241c8.548401 0 15.47821 -6.9298706 15.47821 -15.478241c0 -8.548386 -6.9298096 -15.478226 -15.47821 -15.478226zm-0.51049805 -27.322098l-0.25097656 0.047225952c11.843018 6.055313 23.70874 20.985336 30.191162 31.422562c5.5493164 10.437256 9.579468 25.33133 9.343689 38.2576c0 5.9031982 -1.7315674 14.256287 -4.258606 22.864502l10.0963745 6.1703186l11.975769 33.283783l-32.365417 -12.033661c-1.3015747 2.7320557 -2.5548096 5.037628 -3.671936 6.745575l-41.35443 0c-1.1156616 -1.7058105 -2.3671875 -4.007721 -3.6669312 -6.735321l-32.33789 12.023407l11.975769 -33.283783l10.069031 -6.1536255c-2.5299683 -8.614014 -4.263855 -16.974182 -4.263855 -22.881195c-0.23571777 -12.92627 3.7944336 -27.820343 9.34375 -38.2576c6.482422 -10.437225 16.516052 -27.030396 29.1745 -31.469788z" fill-rule="evenodd" style=""/>
  </g>
</svg>