<?xml version="1.0" encoding="utf-8"?>
<svg viewBox="510.689 203.882 257.795 416.431" xmlns="http://www.w3.org/2000/svg">
  <path fill="#1ffbfd" d="m633.7469 365.26382l21.990051 0l17.614014 85.994446l0.762146 2.2218933l1.493103 -0.12911987c9.066162 0 17.341614 2.9038696 23.54303 7.7809143c3.0142212 -0.8628845 6.232483 -1.2534485 9.557007 -1.2534485c6.4716187 0 12.540222 1.4796753 17.699707 4.1844177c4.5577393 -1.9440918 9.696533 -2.982544 15.118103 -2.982544c10.314636 0 19.605957 3.758789 25.942627 9.915863l1.0172119 149.31705l-257.7938 -0.4661255l0 -116.96045l1.0397949 0.100616455c3.8200378 -13.226807 17.779755 -22.980804 34.395782 -22.980804c0.94104004 0 1.8737793 0.031219482 2.7844238 0.24066162c-0.6067505 -2.0684814 -0.8828125 -4.2334595 -0.8828125 -6.453644c0 -16.87976 15.954346 -30.563599 35.634827 -30.563599c3.673645 0 7.217407 0.47677612 10.5512085 1.3629456l8.769714 -2.7407837c3.5532227 -4.7593994 8.338318 -8.703644 13.941467 -11.45813l3.7559204 -1.3372498z" fill-rule="evenodd" style=""/>
  <path fill="#d1fefe" d="m638.41064 363.38898l11.932129 0l12.388611 131.884l4.2174683 4.4285583c15.126587 3.3013916 17.057007 6.6028748 24.062805 15.442627c3.7304688 -1.3956909 7.8189697 -2.119812 12.093445 -2.119812c3.390625 0 6.6643066 0.45568848 9.703857 1.4453735c4.050476 -12.597015 16.88617 -21.730316 32.067505 -21.730316c8.438171 0 16.151367 2.8216858 21.889954 7.6443176l0 119.929565l-256.07718 0l0 -68.68158c6.016449 -5.3745117 14.282684 -8.664185 23.393768 -8.664185c5.456482 0 10.6102295 1.1799927 15.104248 3.3909302c2.5627441 -9.991455 10.742432 -17.947937 21.340698 -21.179749c2.8302612 -14.256165 16.561035 -25.04834 33.06372 -25.04834l2.7839966 0.3637085l0.47302246 -0.7925415c3.2562256 -4.3828125 7.6416016 -8.015015 12.776367 -10.551514l7.2147217 -2.5812073z" fill-rule="evenodd" style=""/>
  <path fill="#125ac4" d="m646.7236 348.33478c5.3791504 1.9192505 10.3151245 6.2132263 14.272949 13.701996c1.2410278 2.615509 5.088196 11.187897 1.340332 15.664795c-4.3671875 -7.460022 -3.8259277 -8.533905 -8.867676 -9.914276c-0.30218506 4.0952454 -1.6230469 8.138672 -1.9139404 9.743286c-3.4696655 7.7141113 -2.6206055 7.237274 -9.887939 13.01535c0.070007324 -9.758972 -3.8809814 -11.848419 -7.5341187 -13.937866c-2.3949585 -0.9031677 -3.7697144 -3.2561646 -4.17688 -6.026184c-1.9995117 1.2953186 -4.0718994 1.745636 -6.0792847 3.0414734c0 -2.9533691 -2.9785156 -8.587433 0.670166 -14.742706c1.6738892 -2.618103 4.7382812 -6.4510803 8.364075 -9.005005l-1.4863281 2.006775c-1.9507446 3.2909546 -0.35827637 6.3032227 -0.35827637 7.882324c1.0732422 -0.6928406 2.1812744 -0.93362427 3.2503052 -1.6261292c0.2177124 1.4809875 0.9527588 2.7390442 2.2332764 3.2219238c1.953186 1.1171265 4.065613 2.2342834 4.0281982 7.4520264c3.885559 -3.089264 3.4315796 -2.834381 5.286682 -6.9588013c0.15551758 -0.8579712 0.86169434 -3.0197449 1.0233154 -5.2093506c2.6955566 0.7380371 2.406189 1.3121948 4.74115 5.3007507c2.0039062 -2.3936157 -0.053100586 -6.976898 -0.71655273 -8.375366c-1.22052 -2.309204 -2.6148682 -4.0502625 -4.189453 -5.235016zm-25.188416 -14.020203l40.408264 0l-9.412659 12.765869l-21.582947 0l-9.412659 -12.765869zm20.204102 -59.262848c2.524353 0 4.5707397 2.0463867 4.5707397 4.570709c0 2.524353 -2.0463867 4.570709 -4.5707397 4.570709c-2.524353 0 -4.5707397 -2.0463562 -4.5707397 -4.570709c0 -2.5243225 2.0463867 -4.570709 4.5707397 -4.570709zm0 -3.168396c-4.27417 0 -7.7391357 3.4649353 -7.7391357 7.739105c0 4.2742004 3.4649658 7.739105 7.7391357 7.739105c4.27417 0 7.7391357 -3.4649048 7.7391357 -7.739105c0 -4.27417 -3.4649658 -7.739105 -7.7391357 -7.739105zm0 -34.342026c5.048645 0 9.141418 4.092758 9.141418 9.141434c0 5.0486603 -4.0927734 9.141434 -9.141418 9.141434c-5.048645 0 -9.141418 -4.0927734 -9.141418 -9.141434c0 -5.0486755 4.0927734 -9.141434 9.141418 -9.141434zm0 -6.336792c-8.548401 0 -15.47821 6.92984 -15.47821 15.478226c0 8.54837 6.9298096 15.478241 15.47821 15.478241c8.548401 0 15.47821 -6.9298706 15.47821 -15.478241c0 -8.548386 -6.9298096 -15.478226 -15.47821 -15.478226zm-0.51049805 -27.322098l-0.25097656 0.047225952c11.843018 6.055313 23.70874 20.985336 30.191162 31.422562c5.5493164 10.437256 9.579468 25.33133 9.343689 38.2576c0 5.9031982 -1.7315674 14.256287 -4.258606 22.864502l10.0963745 6.1703186l11.975769 33.283783l-32.365417 -12.033661c-1.3015747 2.7320557 -2.5548096 5.037628 -3.671936 6.745575l-41.35443 0c-1.1156616 -1.7058105 -2.3671875 -4.007721 -3.6669312 -6.735321l-32.33789 12.023407l11.975769 -33.283783l10.069031 -6.1536255c-2.5299683 -8.614014 -4.263855 -16.974182 -4.263855 -22.881195c-0.23571777 -12.92627 3.7944336 -27.820343 9.34375 -38.2576c6.482422 -10.437225 16.516052 -27.030396 29.1745 -31.469788z" fill-rule="evenodd" style=""/>
</svg>